<svg xmlns="http://www.w3.org/2000/svg" xmlns:xlink="http://www.w3.org/1999/xlink" width="600" zoomAndPan="magnify" viewBox="0 0 450 149.999998" height="200" preserveAspectRatio="xMidYMid meet" version="1.0"><defs><g/><clipPath id="a67b23b8e0"><path d="M 15 51 L 63 51 L 63 128.25 L 15 128.25 Z M 15 51 " clip-rule="nonzero"/></clipPath><clipPath id="76db542d5f"><path d="M 67 51 L 101.25 51 L 101.25 90 L 67 90 Z M 67 51 " clip-rule="nonzero"/></clipPath><clipPath id="ddff9a93dd"><rect x="0" width="244" y="0" height="79"/></clipPath></defs><path fill="#bf13ff" d="M 72.496094 28.21875 C 70.578125 21.558594 64.671875 17.472656 57.933594 16.9375 L 41.171875 16.792969 C 40.378906 16.789062 39.84375 18.308594 39.84375 19.078125 L 39.828125 75.027344 L 31.191406 69.640625 L 31.046875 21.308594 C 31.039062 18.257812 28.976562 16.140625 26.246094 16.195312 C 25.6875 16.203125 25.359375 15.480469 25.714844 15.023438 L 58.871094 15.078125 C 71.992188 15.09375 82.507812 20.371094 82.636719 34.085938 C 82.699219 40.804688 79.855469 46.636719 74.320312 50.441406 C 70.121094 52.96875 65.265625 54.839844 59.9375 53.867188 C 65.960938 52.316406 70.632812 48.660156 72.417969 42.675781 C 73.785156 38.089844 73.910156 33.132812 72.496094 28.226562 Z M 72.496094 28.21875 " fill-opacity="1" fill-rule="nonzero"/><g clip-path="url(#a67b23b8e0)"><path fill="#00e5ff" d="M 59.902344 101.394531 C 65.800781 110.667969 62.289062 121.675781 53.457031 128.25 C 54.933594 125.335938 56.632812 123.070312 57.445312 120.03125 C 58.734375 115.210938 57.894531 110.433594 54.867188 106.445312 C 52.695312 103.578125 50.105469 101.128906 46.972656 99.28125 L 31.363281 90.058594 C 27.703125 87.898438 24.355469 85.695312 21.277344 82.835938 C 15.738281 77.679688 13.5625 70.292969 15.976562 63.003906 C 17.546875 58.265625 20.515625 54.121094 24.742188 51.242188 C 22.539062 54.921875 20.738281 58.339844 20.292969 62.503906 C 19.6875 68.03125 22.03125 73 26.179688 76.613281 C 29.085938 79.328125 32.460938 81.230469 35.925781 83.257812 L 48.53125 90.628906 C 53.125 93.3125 57.039062 96.894531 59.902344 101.394531 Z M 59.902344 101.394531 " fill-opacity="1" fill-rule="nonzero"/></g><g clip-path="url(#76db542d5f)"><path fill="#bf13ff" d="M 67.644531 89.117188 C 67.375 88.820312 67.34375 88.203125 67.511719 87.796875 L 78.617188 87.542969 C 90.167969 85.871094 94.359375 74.855469 91.746094 63.875 C 90.363281 58.074219 86.003906 53.675781 80.265625 52.234375 C 79.671875 50 86.363281 51.234375 90.101562 52.546875 C 97.066406 54.988281 101.132812 60.980469 101.472656 68.253906 C 101.824219 75.765625 98.453125 82.507812 91.679688 86.003906 C 87.222656 88.304688 82.214844 89.144531 77.113281 89.136719 L 67.648438 89.117188 Z M 67.644531 89.117188 " fill-opacity="1" fill-rule="nonzero"/></g><path fill="#bf13ff" d="M 57.105469 87.867188 C 54.65625 85.835938 52.667969 83.457031 49.917969 81.640625 L 49.902344 55.957031 C 49.902344 53.808594 49.078125 52.332031 47.179688 50.988281 L 57.179688 50.867188 L 57.109375 87.871094 Z M 57.105469 87.867188 " fill-opacity="1" fill-rule="nonzero"/><g transform="matrix(1, 0, 0, 1, 156, 13)"><g clip-path="url(#ddff9a93dd)"><g fill="#bf13ff" fill-opacity="1"><g transform="translate(0.440256, 61.155054)"><g><path d="M 13.09375 -28.546875 L 13.34375 -28.546875 C 14.675781 -30.128906 16.109375 -31.378906 17.640625 -32.296875 C 19.179688 -33.210938 20.96875 -33.671875 23 -33.671875 C 25.375 -33.671875 27.546875 -33.242188 29.515625 -32.390625 C 31.492188 -31.535156 33.207031 -30.335938 34.65625 -28.796875 C 36.113281 -27.265625 37.25 -25.445312 38.0625 -23.34375 C 38.875 -21.25 39.28125 -18.953125 39.28125 -16.453125 C 39.28125 -13.921875 38.863281 -11.601562 38.03125 -9.5 C 37.195312 -7.40625 36.050781 -5.609375 34.59375 -4.109375 C 33.144531 -2.617188 31.421875 -1.457031 29.421875 -0.625 C 27.429688 0.207031 25.269531 0.625 22.9375 0.625 C 21.03125 0.625 19.296875 0.300781 17.734375 -0.34375 C 16.179688 -0.988281 14.71875 -2.035156 13.34375 -3.484375 L 13.34375 5.609375 C 13.34375 7.273438 13.425781 8.601562 13.59375 9.59375 C 13.757812 10.59375 14.09375 11.363281 14.59375 11.90625 C 15.09375 12.445312 15.804688 12.820312 16.734375 13.03125 C 17.671875 13.238281 18.910156 13.363281 20.453125 13.40625 L 20.453125 15.59375 L 1.25 15.59375 L 1.25 13.40625 C 2.5 13.363281 3.503906 13.238281 4.265625 13.03125 C 5.035156 12.820312 5.640625 12.445312 6.078125 11.90625 C 6.515625 11.363281 6.816406 10.625 6.984375 9.6875 C 7.148438 8.757812 7.234375 7.546875 7.234375 6.046875 L 7.234375 -17.265625 C 7.234375 -19.679688 7.203125 -21.65625 7.140625 -23.1875 C 7.078125 -24.726562 6.960938 -25.789062 6.796875 -26.375 C 6.585938 -27.375 6.109375 -28.046875 5.359375 -28.390625 C 4.609375 -28.742188 3.195312 -28.921875 1.125 -28.921875 L 1.125 -31.046875 L 13.09375 -33.421875 Z M 14.96875 -26.75 C 14.425781 -25.914062 14.019531 -24.925781 13.75 -23.78125 C 13.476562 -22.632812 13.34375 -21.148438 13.34375 -19.328125 L 13.34375 -14.46875 C 13.34375 -13.34375 13.375 -12.375 13.4375 -11.5625 C 13.5 -10.75 13.59375 -10.050781 13.71875 -9.46875 C 13.84375 -8.894531 14.007812 -8.378906 14.21875 -7.921875 C 14.425781 -7.460938 14.695312 -7.023438 15.03125 -6.609375 C 15.976562 -5.273438 17.117188 -4.242188 18.453125 -3.515625 C 19.785156 -2.796875 21.175781 -2.4375 22.625 -2.4375 C 25.5 -2.4375 27.816406 -3.640625 29.578125 -6.046875 C 31.347656 -8.453125 32.234375 -11.835938 32.234375 -16.203125 C 32.234375 -18.367188 31.992188 -20.332031 31.515625 -22.09375 C 31.035156 -23.863281 30.359375 -25.378906 29.484375 -26.640625 C 28.609375 -27.910156 27.554688 -28.898438 26.328125 -29.609375 C 25.109375 -30.316406 23.75 -30.671875 22.25 -30.671875 C 20.757812 -30.671875 19.378906 -30.328125 18.109375 -29.640625 C 16.835938 -28.953125 15.789062 -27.988281 14.96875 -26.75 Z M 14.96875 -26.75 "/></g></g></g><g fill="#bf13ff" fill-opacity="1"><g transform="translate(42.768786, 61.155054)"><g><path d="M 32.546875 -5.796875 C 29.015625 -1.515625 24.628906 0.625 19.390625 0.625 C 16.929688 0.625 14.703125 0.21875 12.703125 -0.59375 C 10.710938 -1.40625 9 -2.546875 7.5625 -4.015625 C 6.132812 -5.492188 5.023438 -7.257812 4.234375 -9.3125 C 3.453125 -11.375 3.0625 -13.648438 3.0625 -16.140625 C 3.0625 -18.679688 3.472656 -21.03125 4.296875 -23.1875 C 5.128906 -25.351562 6.300781 -27.203125 7.8125 -28.734375 C 9.332031 -30.273438 11.140625 -31.484375 13.234375 -32.359375 C 15.335938 -33.234375 17.640625 -33.671875 20.140625 -33.671875 C 24.171875 -33.671875 27.285156 -32.578125 29.484375 -30.390625 C 31.691406 -28.210938 32.796875 -25.085938 32.796875 -21.015625 C 32.796875 -20.429688 32.679688 -20.078125 32.453125 -19.953125 C 32.222656 -19.828125 31.691406 -19.765625 30.859375 -19.765625 L 10.34375 -19.765625 C 10.257812 -19.429688 10.195312 -19.023438 10.15625 -18.546875 C 10.113281 -18.066406 10.09375 -17.535156 10.09375 -16.953125 C 10.09375 -14.796875 10.351562 -12.832031 10.875 -11.0625 C 11.394531 -9.300781 12.144531 -7.796875 13.125 -6.546875 C 14.101562 -5.296875 15.265625 -4.328125 16.609375 -3.640625 C 17.960938 -2.960938 19.472656 -2.625 21.140625 -2.625 C 22.878906 -2.625 24.492188 -3.003906 25.984375 -3.765625 C 27.484375 -4.535156 29.023438 -5.796875 30.609375 -7.546875 Z M 22.25 -22.625 C 23.082031 -22.625 23.75 -22.644531 24.25 -22.6875 C 24.75 -22.726562 25.125 -22.8125 25.375 -22.9375 C 25.625 -23.0625 25.789062 -23.238281 25.875 -23.46875 C 25.957031 -23.695312 26 -24 26 -24.375 C 26 -26.289062 25.382812 -27.816406 24.15625 -28.953125 C 22.925781 -30.097656 21.253906 -30.671875 19.140625 -30.671875 C 14.648438 -30.671875 11.863281 -27.988281 10.78125 -22.625 Z M 22.25 -22.625 "/></g></g></g><g fill="#bf13ff" fill-opacity="1"><g transform="translate(78.489318, 61.155054)"><g><path d="M 13.09375 -28.546875 L 13.34375 -28.546875 C 14.675781 -30.128906 16.109375 -31.378906 17.640625 -32.296875 C 19.179688 -33.210938 20.96875 -33.671875 23 -33.671875 C 25.375 -33.671875 27.546875 -33.242188 29.515625 -32.390625 C 31.492188 -31.535156 33.207031 -30.335938 34.65625 -28.796875 C 36.113281 -27.265625 37.25 -25.445312 38.0625 -23.34375 C 38.875 -21.25 39.28125 -18.953125 39.28125 -16.453125 C 39.28125 -13.921875 38.863281 -11.601562 38.03125 -9.5 C 37.195312 -7.40625 36.050781 -5.609375 34.59375 -4.109375 C 33.144531 -2.617188 31.421875 -1.457031 29.421875 -0.625 C 27.429688 0.207031 25.269531 0.625 22.9375 0.625 C 21.03125 0.625 19.296875 0.300781 17.734375 -0.34375 C 16.179688 -0.988281 14.71875 -2.035156 13.34375 -3.484375 L 13.34375 5.609375 C 13.34375 7.273438 13.425781 8.601562 13.59375 9.59375 C 13.757812 10.59375 14.09375 11.363281 14.59375 11.90625 C 15.09375 12.445312 15.804688 12.820312 16.734375 13.03125 C 17.671875 13.238281 18.910156 13.363281 20.453125 13.40625 L 20.453125 15.59375 L 1.25 15.59375 L 1.25 13.40625 C 2.5 13.363281 3.503906 13.238281 4.265625 13.03125 C 5.035156 12.820312 5.640625 12.445312 6.078125 11.90625 C 6.515625 11.363281 6.816406 10.625 6.984375 9.6875 C 7.148438 8.757812 7.234375 7.546875 7.234375 6.046875 L 7.234375 -17.265625 C 7.234375 -19.679688 7.203125 -21.65625 7.140625 -23.1875 C 7.078125 -24.726562 6.960938 -25.789062 6.796875 -26.375 C 6.585938 -27.375 6.109375 -28.046875 5.359375 -28.390625 C 4.609375 -28.742188 3.195312 -28.921875 1.125 -28.921875 L 1.125 -31.046875 L 13.09375 -33.421875 Z M 14.96875 -26.75 C 14.425781 -25.914062 14.019531 -24.925781 13.75 -23.78125 C 13.476562 -22.632812 13.34375 -21.148438 13.34375 -19.328125 L 13.34375 -14.46875 C 13.34375 -13.34375 13.375 -12.375 13.4375 -11.5625 C 13.5 -10.75 13.59375 -10.050781 13.71875 -9.46875 C 13.84375 -8.894531 14.007812 -8.378906 14.21875 -7.921875 C 14.425781 -7.460938 14.695312 -7.023438 15.03125 -6.609375 C 15.976562 -5.273438 17.117188 -4.242188 18.453125 -3.515625 C 19.785156 -2.796875 21.175781 -2.4375 22.625 -2.4375 C 25.5 -2.4375 27.816406 -3.640625 29.578125 -6.046875 C 31.347656 -8.453125 32.234375 -11.835938 32.234375 -16.203125 C 32.234375 -18.367188 31.992188 -20.332031 31.515625 -22.09375 C 31.035156 -23.863281 30.359375 -25.378906 29.484375 -26.640625 C 28.609375 -27.910156 27.554688 -28.898438 26.328125 -29.609375 C 25.109375 -30.316406 23.75 -30.671875 22.25 -30.671875 C 20.757812 -30.671875 19.378906 -30.328125 18.109375 -29.640625 C 16.835938 -28.953125 15.789062 -27.988281 14.96875 -26.75 Z M 14.96875 -26.75 "/></g></g></g><g fill="#bf13ff" fill-opacity="1"><g transform="translate(120.817843, 61.155054)"><g><path d="M 2.5 -29.109375 L 2.5 -31.421875 C 4.695312 -32.710938 6.414062 -34 7.65625 -35.28125 C 8.90625 -36.570312 9.863281 -38.113281 10.53125 -39.90625 L 12.34375 -39.90625 L 12.34375 -32.046875 L 20.703125 -32.046875 L 20.703125 -29.109375 L 12.34375 -29.109375 L 12.34375 -10.15625 C 12.34375 -8.707031 12.414062 -7.484375 12.5625 -6.484375 C 12.707031 -5.484375 12.945312 -4.679688 13.28125 -4.078125 C 13.613281 -3.472656 14.050781 -3.046875 14.59375 -2.796875 C 15.132812 -2.554688 15.816406 -2.4375 16.640625 -2.4375 C 17.679688 -2.4375 18.566406 -2.648438 19.296875 -3.078125 C 20.023438 -3.515625 20.742188 -4.253906 21.453125 -5.296875 L 23 -4.109375 C 22.414062 -2.578125 21.40625 -1.40625 19.96875 -0.59375 C 18.539062 0.21875 16.769531 0.625 14.65625 0.625 C 11.90625 0.625 9.8125 -0.0234375 8.375 -1.328125 C 6.945312 -2.640625 6.234375 -4.523438 6.234375 -6.984375 L 6.234375 -29.109375 Z M 2.5 -29.109375 "/></g></g></g><g fill="#bf13ff" fill-opacity="1"><g transform="translate(144.384247, 61.155054)"><g><path d="M 8.171875 -20.578125 C 8.753906 -22.191406 9.164062 -23.5 9.40625 -24.5 C 9.65625 -25.5 9.78125 -26.289062 9.78125 -26.875 C 9.78125 -27.457031 9.6875 -27.835938 9.5 -28.015625 C 9.320312 -28.203125 9.128906 -28.296875 8.921875 -28.296875 C 8.460938 -28.296875 7.960938 -28.078125 7.421875 -27.640625 C 6.878906 -27.210938 6.335938 -26.707031 5.796875 -26.125 C 5.253906 -25.539062 4.773438 -24.957031 4.359375 -24.375 C 3.941406 -23.789062 3.648438 -23.332031 3.484375 -23 L 1.6875 -24.125 C 2.1875 -25.039062 2.878906 -26.054688 3.765625 -27.171875 C 4.660156 -28.296875 5.671875 -29.335938 6.796875 -30.296875 C 7.921875 -31.253906 9.082031 -32.054688 10.28125 -32.703125 C 11.488281 -33.347656 12.632812 -33.671875 13.71875 -33.671875 C 14.757812 -33.671875 15.535156 -33.367188 16.046875 -32.765625 C 16.566406 -32.160156 16.828125 -31.066406 16.828125 -29.484375 C 16.828125 -28.285156 16.460938 -26.664062 15.734375 -24.625 C 15.015625 -22.59375 14.070312 -19.972656 12.90625 -16.765625 L 10.59375 -10.46875 C 10.507812 -10.257812 10.394531 -9.9375 10.25 -9.5 C 10.101562 -9.070312 9.957031 -8.617188 9.8125 -8.140625 C 9.664062 -7.660156 9.539062 -7.191406 9.4375 -6.734375 C 9.34375 -6.273438 9.296875 -5.898438 9.296875 -5.609375 C 9.296875 -5.234375 9.394531 -4.898438 9.59375 -4.609375 C 9.800781 -4.316406 10.132812 -4.171875 10.59375 -4.171875 C 11.21875 -4.171875 11.863281 -4.429688 12.53125 -4.953125 C 13.195312 -5.472656 13.84375 -6.085938 14.46875 -6.796875 C 15.09375 -7.503906 15.648438 -8.21875 16.140625 -8.9375 C 16.640625 -9.664062 17.015625 -10.238281 17.265625 -10.65625 L 19.140625 -9.59375 C 18.640625 -8.601562 17.960938 -7.503906 17.109375 -6.296875 C 16.253906 -5.085938 15.285156 -3.972656 14.203125 -2.953125 C 13.128906 -1.941406 11.945312 -1.09375 10.65625 -0.40625 C 9.375 0.28125 8.046875 0.625 6.671875 0.625 C 5.460938 0.625 4.554688 0.3125 3.953125 -0.3125 C 3.359375 -0.9375 3.0625 -1.972656 3.0625 -3.421875 C 3.0625 -4.628906 3.253906 -5.925781 3.640625 -7.3125 C 4.035156 -8.707031 4.609375 -10.46875 5.359375 -12.59375 Z M 17.328125 -43.890625 C 16.285156 -43.890625 15.378906 -44.242188 14.609375 -44.953125 C 13.847656 -45.660156 13.46875 -46.570312 13.46875 -47.6875 C 13.46875 -48.8125 13.835938 -49.769531 14.578125 -50.5625 C 15.328125 -51.351562 16.242188 -51.75 17.328125 -51.75 C 18.492188 -51.75 19.453125 -51.351562 20.203125 -50.5625 C 20.953125 -49.769531 21.328125 -48.832031 21.328125 -47.75 C 21.328125 -46.675781 20.929688 -45.765625 20.140625 -45.015625 C 19.347656 -44.265625 18.410156 -43.890625 17.328125 -43.890625 Z M 17.328125 -43.890625 "/></g></g></g><g fill="#bf13ff" fill-opacity="1"><g transform="translate(165.830338, 61.155054)"><g><path d="M 30.171875 -5.234375 L 29.921875 -5.234375 C 28.429688 -3.117188 26.84375 -1.613281 25.15625 -0.71875 C 23.46875 0.175781 21.484375 0.625 19.203125 0.625 C 16.828125 0.625 14.648438 0.195312 12.671875 -0.65625 C 10.703125 -1.507812 9 -2.691406 7.5625 -4.203125 C 6.132812 -5.722656 5.015625 -7.539062 4.203125 -9.65625 C 3.398438 -11.78125 3 -14.085938 3 -16.578125 C 3 -19.035156 3.398438 -21.3125 4.203125 -23.40625 C 5.015625 -25.507812 6.132812 -27.316406 7.5625 -28.828125 C 9 -30.347656 10.710938 -31.535156 12.703125 -32.390625 C 14.703125 -33.242188 16.867188 -33.671875 19.203125 -33.671875 C 21.191406 -33.671875 22.96875 -33.335938 24.53125 -32.671875 C 26.09375 -32.003906 27.597656 -30.941406 29.046875 -29.484375 L 29.046875 -35.84375 C 29.046875 -38.21875 29.015625 -40.191406 28.953125 -41.765625 C 28.890625 -43.347656 28.796875 -44.429688 28.671875 -45.015625 C 28.460938 -45.929688 27.878906 -46.570312 26.921875 -46.9375 C 25.972656 -47.3125 24.414062 -47.5 22.25 -47.5 L 22.25 -49.375 L 35.03125 -51.75 L 35.03125 -15.765625 C 35.03125 -12.898438 35.050781 -10.539062 35.09375 -8.6875 C 35.132812 -6.84375 35.257812 -5.523438 35.46875 -4.734375 C 35.59375 -4.234375 35.75 -3.816406 35.9375 -3.484375 C 36.125 -3.160156 36.394531 -2.90625 36.75 -2.71875 C 37.101562 -2.53125 37.582031 -2.394531 38.1875 -2.3125 C 38.789062 -2.226562 39.570312 -2.1875 40.53125 -2.1875 L 40.53125 -0.0625 L 30.171875 0.625 Z M 28.921875 -19.015625 C 28.921875 -21.171875 28.804688 -22.8125 28.578125 -23.9375 C 28.347656 -25.0625 27.90625 -26.039062 27.25 -26.875 C 26.289062 -28.113281 25.070312 -29.054688 23.59375 -29.703125 C 22.125 -30.347656 20.660156 -30.671875 19.203125 -30.671875 C 16.210938 -30.671875 13.9375 -29.429688 12.375 -26.953125 C 10.8125 -24.484375 10.03125 -21.128906 10.03125 -16.890625 C 10.03125 -14.691406 10.226562 -12.695312 10.625 -10.90625 C 11.019531 -9.125 11.601562 -7.597656 12.375 -6.328125 C 13.144531 -5.054688 14.097656 -4.078125 15.234375 -3.390625 C 16.378906 -2.710938 17.703125 -2.375 19.203125 -2.375 C 19.953125 -2.375 20.707031 -2.457031 21.46875 -2.625 C 22.238281 -2.789062 22.988281 -3.046875 23.71875 -3.390625 C 24.445312 -3.742188 25.125 -4.160156 25.75 -4.640625 C 26.375 -5.117188 26.894531 -5.671875 27.3125 -6.296875 C 27.882812 -7.210938 28.296875 -8.3125 28.546875 -9.59375 C 28.796875 -10.882812 28.921875 -12.65625 28.921875 -14.90625 Z M 28.921875 -19.015625 "/></g></g></g><g fill="#bf13ff" fill-opacity="1"><g transform="translate(207.909498, 61.155054)"><g><path d="M 32.546875 -5.796875 C 29.015625 -1.515625 24.628906 0.625 19.390625 0.625 C 16.929688 0.625 14.703125 0.21875 12.703125 -0.59375 C 10.710938 -1.40625 9 -2.546875 7.5625 -4.015625 C 6.132812 -5.492188 5.023438 -7.257812 4.234375 -9.3125 C 3.453125 -11.375 3.0625 -13.648438 3.0625 -16.140625 C 3.0625 -18.679688 3.472656 -21.03125 4.296875 -23.1875 C 5.128906 -25.351562 6.300781 -27.203125 7.8125 -28.734375 C 9.332031 -30.273438 11.140625 -31.484375 13.234375 -32.359375 C 15.335938 -33.234375 17.640625 -33.671875 20.140625 -33.671875 C 24.171875 -33.671875 27.285156 -32.578125 29.484375 -30.390625 C 31.691406 -28.210938 32.796875 -25.085938 32.796875 -21.015625 C 32.796875 -20.429688 32.679688 -20.078125 32.453125 -19.953125 C 32.222656 -19.828125 31.691406 -19.765625 30.859375 -19.765625 L 10.34375 -19.765625 C 10.257812 -19.429688 10.195312 -19.023438 10.15625 -18.546875 C 10.113281 -18.066406 10.09375 -17.535156 10.09375 -16.953125 C 10.09375 -14.796875 10.351562 -12.832031 10.875 -11.0625 C 11.394531 -9.300781 12.144531 -7.796875 13.125 -6.546875 C 14.101562 -5.296875 15.265625 -4.328125 16.609375 -3.640625 C 17.960938 -2.960938 19.472656 -2.625 21.140625 -2.625 C 22.878906 -2.625 24.492188 -3.003906 25.984375 -3.765625 C 27.484375 -4.535156 29.023438 -5.796875 30.609375 -7.546875 Z M 22.25 -22.625 C 23.082031 -22.625 23.75 -22.644531 24.25 -22.6875 C 24.75 -22.726562 25.125 -22.8125 25.375 -22.9375 C 25.625 -23.0625 25.789062 -23.238281 25.875 -23.46875 C 25.957031 -23.695312 26 -24 26 -24.375 C 26 -26.289062 25.382812 -27.816406 24.15625 -28.953125 C 22.925781 -30.097656 21.253906 -30.671875 19.140625 -30.671875 C 14.648438 -30.671875 11.863281 -27.988281 10.78125 -22.625 Z M 22.25 -22.625 "/></g></g></g></g></g><g fill="#00e5ff" fill-opacity="1"><g transform="translate(157.711166, 111.509196)"><g><path d="M 1.65625 0 L 1.65625 -15.359375 L 7.109375 -15.359375 C 8.910156 -15.359375 10.328125 -14.914062 11.359375 -14.03125 C 12.398438 -13.15625 12.921875 -11.953125 12.921875 -10.421875 C 12.921875 -8.847656 12.394531 -7.625 11.34375 -6.75 C 10.300781 -5.875 8.90625 -5.4375 7.15625 -5.4375 L 4.1875 -5.4375 L 4.1875 0 Z M 7.09375 -13.328125 L 4.1875 -13.328125 L 4.1875 -7.484375 L 7.03125 -7.484375 C 8.09375 -7.484375 8.90625 -7.742188 9.46875 -8.265625 C 10.039062 -8.796875 10.328125 -9.503906 10.328125 -10.390625 C 10.328125 -11.273438 10.039062 -11.984375 9.46875 -12.515625 C 8.90625 -13.054688 8.113281 -13.328125 7.09375 -13.328125 Z M 7.09375 -13.328125 "/></g></g></g><g fill="#00e5ff" fill-opacity="1"><g transform="translate(182.724894, 111.509196)"><g><path d="M 1.65625 0 L 1.65625 -15.359375 L 7.40625 -15.359375 C 9.0625 -15.359375 10.378906 -14.957031 11.359375 -14.15625 C 12.335938 -13.363281 12.828125 -12.289062 12.828125 -10.9375 C 12.828125 -10.0625 12.640625 -9.320312 12.265625 -8.71875 C 11.890625 -8.113281 11.359375 -7.640625 10.671875 -7.296875 C 11.117188 -7.054688 11.476562 -6.71875 11.75 -6.28125 C 12.019531 -5.851562 12.238281 -5.296875 12.40625 -4.609375 L 13.5625 0 L 10.890625 0 L 9.96875 -4.109375 C 9.832031 -4.703125 9.65625 -5.144531 9.4375 -5.4375 C 9.21875 -5.738281 8.929688 -5.941406 8.578125 -6.046875 C 8.222656 -6.160156 7.757812 -6.21875 7.1875 -6.21875 L 4.1875 -6.21875 L 4.1875 0 Z M 7.34375 -13.328125 L 4.1875 -13.328125 L 4.1875 -8.25 L 7.296875 -8.25 C 8.234375 -8.25 8.957031 -8.476562 9.46875 -8.9375 C 9.976562 -9.394531 10.234375 -10.015625 10.234375 -10.796875 C 10.234375 -11.566406 9.976562 -12.179688 9.46875 -12.640625 C 8.96875 -13.097656 8.257812 -13.328125 7.34375 -13.328125 Z M 7.34375 -13.328125 "/></g></g></g><g fill="#00e5ff" fill-opacity="1"><g transform="translate(208.190491, 111.509196)"><g><path d="M 1.65625 0 L 1.65625 -15.359375 L 4.1875 -15.359375 L 4.1875 0 Z M 1.65625 0 "/></g></g></g><g fill="#00e5ff" fill-opacity="1"><g transform="translate(225.251251, 111.509196)"><g><path d="M 14.625 -10.796875 L 11.96875 -10.796875 C 11.71875 -11.691406 11.25 -12.367188 10.5625 -12.828125 C 9.875 -13.296875 9.070312 -13.53125 8.15625 -13.53125 C 6.757812 -13.53125 5.664062 -13.003906 4.875 -11.953125 C 4.082031 -10.910156 3.6875 -9.476562 3.6875 -7.65625 C 3.6875 -5.832031 4.078125 -4.40625 4.859375 -3.375 C 5.640625 -2.34375 6.738281 -1.828125 8.15625 -1.828125 C 9.039062 -1.828125 9.816406 -2.046875 10.484375 -2.484375 C 11.160156 -2.929688 11.640625 -3.59375 11.921875 -4.46875 L 14.59375 -4.46875 C 14.320312 -3.457031 13.867188 -2.59375 13.234375 -1.875 C 12.609375 -1.164062 11.859375 -0.625 10.984375 -0.25 C 10.109375 0.113281 9.164062 0.296875 8.15625 0.296875 C 6.695312 0.296875 5.4375 -0.0195312 4.375 -0.65625 C 3.320312 -1.300781 2.515625 -2.21875 1.953125 -3.40625 C 1.390625 -4.601562 1.109375 -6.019531 1.109375 -7.65625 C 1.109375 -9.300781 1.394531 -10.722656 1.96875 -11.921875 C 2.539062 -13.117188 3.359375 -14.039062 4.421875 -14.6875 C 5.484375 -15.332031 6.75 -15.65625 8.21875 -15.65625 C 9.25 -15.65625 10.195312 -15.46875 11.0625 -15.09375 C 11.9375 -14.726562 12.6875 -14.1875 13.3125 -13.46875 C 13.9375 -12.757812 14.375 -11.867188 14.625 -10.796875 Z M 14.625 -10.796875 "/></g></g></g><g fill="#00e5ff" fill-opacity="1"><g transform="translate(251.982096, 111.509196)"><g><path d="M 1.65625 0 L 1.65625 -15.359375 L 12.25 -15.359375 L 12.25 -13.328125 L 4.1875 -13.328125 L 4.1875 -8.953125 L 11.390625 -8.953125 L 11.390625 -6.9375 L 4.1875 -6.9375 L 4.1875 -2.03125 L 12.25 -2.03125 L 12.25 0 Z M 1.65625 0 "/></g></g></g><g fill="#00e5ff" fill-opacity="1"><g transform="translate(276.408387, 111.509196)"><g/></g></g><g fill="#00e5ff" fill-opacity="1"><g transform="translate(292.068333, 111.509196)"><g><path d="M 1.65625 0 L 1.65625 -15.359375 L 4.1875 -15.359375 L 4.1875 -2.0625 L 11.609375 -2.0625 L 11.609375 0 Z M 1.65625 0 "/></g></g></g><g fill="#00e5ff" fill-opacity="1"><g transform="translate(315.590884, 111.509196)"><g><path d="M 12.515625 0 L 11.203125 -3.453125 L 4.203125 -3.453125 L 2.890625 0 L 0.359375 0 L 6.28125 -15.359375 L 9.234375 -15.359375 L 15.15625 0 Z M 7.25 -11.4375 L 4.96875 -5.4375 L 10.4375 -5.4375 L 8.15625 -11.4375 L 7.703125 -12.921875 Z M 7.25 -11.4375 "/></g></g></g><g fill="#00e5ff" fill-opacity="1"><g transform="translate(342.366921, 111.509196)"><g><path d="M 1.65625 0 L 1.65625 -15.359375 L 7.296875 -15.359375 C 8.921875 -15.359375 10.210938 -14.984375 11.171875 -14.234375 C 12.128906 -13.492188 12.609375 -12.476562 12.609375 -11.1875 C 12.609375 -10.476562 12.429688 -9.851562 12.078125 -9.3125 C 11.722656 -8.78125 11.210938 -8.375 10.546875 -8.09375 C 11.492188 -7.800781 12.21875 -7.332031 12.71875 -6.6875 C 13.21875 -6.050781 13.46875 -5.285156 13.46875 -4.390625 C 13.46875 -2.992188 12.992188 -1.910156 12.046875 -1.140625 C 11.097656 -0.378906 9.769531 0 8.0625 0 Z M 7.234375 -13.359375 L 4.1875 -13.359375 L 4.1875 -8.828125 L 7.1875 -8.828125 C 8.09375 -8.828125 8.789062 -9.035156 9.28125 -9.453125 C 9.769531 -9.867188 10.015625 -10.398438 10.015625 -11.046875 C 10.015625 -11.753906 9.769531 -12.316406 9.28125 -12.734375 C 8.789062 -13.148438 8.109375 -13.359375 7.234375 -13.359375 Z M 7.75 -6.875 L 4.1875 -6.875 L 4.1875 -2.015625 L 8 -2.015625 C 8.882812 -2.015625 9.582031 -2.234375 10.09375 -2.671875 C 10.613281 -3.117188 10.875 -3.710938 10.875 -4.453125 C 10.875 -5.191406 10.597656 -5.78125 10.046875 -6.21875 C 9.492188 -6.65625 8.726562 -6.875 7.75 -6.875 Z M 7.75 -6.875 "/></g></g></g><path stroke-linecap="butt" transform="matrix(0, 0.75, -0.75, 0, 128.277491, 15.001792)" fill="none" stroke-linejoin="miter" d="M -0.00238934 0.500196 L 155.768453 0.500196 " stroke="#00e5ff" stroke-width="1" stroke-opacity="1" stroke-miterlimit="4"/></svg>