<svg xmlns="http://www.w3.org/2000/svg" xmlns:xlink="http://www.w3.org/1999/xlink" width="600" zoomAndPan="magnify" viewBox="0 0 450 149.999998" height="200" preserveAspectRatio="xMidYMid meet" version="1.0"><defs><g/><clipPath id="e90995140a"><path d="M 70 53 L 106.5 53 L 106.5 94 L 70 94 Z M 70 53 " clip-rule="nonzero"/></clipPath><clipPath id="8c9a030fde"><rect x="0" width="298" y="0" height="96"/></clipPath></defs><path fill="#454b4d" d="M 75.910156 29.003906 C 73.878906 21.953125 67.621094 17.621094 60.484375 17.054688 L 42.726562 16.902344 C 41.882812 16.898438 41.320312 18.507812 41.320312 19.324219 L 41.300781 78.59375 L 32.152344 72.882812 L 32 21.683594 C 31.992188 18.453125 29.804688 16.210938 26.914062 16.269531 C 26.320312 16.277344 25.972656 15.511719 26.347656 15.027344 L 61.476562 15.082031 C 75.371094 15.101562 86.515625 20.691406 86.652344 35.21875 C 86.71875 42.339844 83.703125 48.515625 77.839844 52.546875 C 73.394531 55.226562 68.25 57.203125 62.601562 56.175781 C 68.984375 54.535156 73.933594 50.660156 75.824219 44.320312 C 77.273438 39.460938 77.402344 34.210938 75.910156 29.015625 Z M 75.910156 29.003906 " fill-opacity="1" fill-rule="nonzero"/><path fill="#c7a69c" d="M 62.566406 106.523438 C 68.8125 116.34375 65.09375 128.011719 55.738281 134.972656 C 57.304688 131.882812 59.105469 129.488281 59.964844 126.265625 C 61.328125 121.160156 60.441406 116.101562 57.234375 111.875 C 54.929688 108.835938 52.1875 106.242188 48.871094 104.285156 L 32.335938 94.515625 C 28.457031 92.226562 24.910156 89.894531 21.648438 86.863281 C 15.78125 81.402344 13.476562 73.574219 16.035156 65.855469 C 17.699219 60.835938 20.84375 56.441406 25.320312 53.394531 C 22.988281 57.292969 21.078125 60.914062 20.609375 65.324219 C 19.964844 71.183594 22.449219 76.445312 26.84375 80.269531 C 29.921875 83.148438 33.496094 85.164062 37.167969 87.308594 L 50.519531 95.117188 C 55.386719 97.960938 59.535156 101.757812 62.566406 106.523438 Z M 62.566406 106.523438 " fill-opacity="1" fill-rule="nonzero"/><g clip-path="url(#e90995140a)"><path fill="#454b4d" d="M 70.769531 93.519531 C 70.484375 93.203125 70.449219 92.550781 70.628906 92.117188 L 82.390625 91.851562 C 94.628906 90.078125 99.070312 78.410156 96.300781 66.777344 C 94.835938 60.632812 90.214844 55.972656 84.136719 54.445312 C 83.511719 52.078125 90.597656 53.386719 94.558594 54.777344 C 101.9375 57.363281 106.242188 63.710938 106.605469 71.417969 C 106.976562 79.371094 103.402344 86.515625 96.230469 90.21875 C 91.507812 92.660156 86.207031 93.546875 80.796875 93.539062 L 70.773438 93.519531 Z M 70.769531 93.519531 " fill-opacity="1" fill-rule="nonzero"/></g><path fill="#454b4d" d="M 59.605469 92.195312 C 57.007812 90.039062 54.902344 87.519531 51.992188 85.597656 L 51.972656 58.390625 C 51.972656 56.113281 51.097656 54.546875 49.089844 53.128906 L 59.683594 52.996094 L 59.609375 92.199219 Z M 59.605469 92.195312 " fill-opacity="1" fill-rule="nonzero"/><g transform="matrix(1, 0, 0, 1, 141, 1)"><g clip-path="url(#8c9a030fde)"><g fill="#454b4d" fill-opacity="1"><g transform="translate(0.704338, 74.521103)"><g><path d="M 15.984375 -34.859375 L 16.296875 -34.859375 C 17.921875 -36.796875 19.671875 -38.320312 21.546875 -39.4375 C 23.421875 -40.550781 25.601562 -41.109375 28.09375 -41.109375 C 30.976562 -41.109375 33.625 -40.585938 36.03125 -39.546875 C 38.445312 -38.503906 40.539062 -37.046875 42.3125 -35.171875 C 44.09375 -33.296875 45.476562 -31.078125 46.46875 -28.515625 C 47.457031 -25.953125 47.953125 -23.144531 47.953125 -20.09375 C 47.953125 -17 47.441406 -14.171875 46.421875 -11.609375 C 45.410156 -9.046875 44.015625 -6.847656 42.234375 -5.015625 C 40.460938 -3.191406 38.359375 -1.769531 35.921875 -0.75 C 33.492188 0.257812 30.859375 0.765625 28.015625 0.765625 C 25.679688 0.765625 23.5625 0.375 21.65625 -0.40625 C 19.75 -1.195312 17.960938 -2.484375 16.296875 -4.265625 L 16.296875 6.84375 C 16.296875 8.875 16.394531 10.5 16.59375 11.71875 C 16.800781 12.9375 17.207031 13.875 17.8125 14.53125 C 18.425781 15.195312 19.300781 15.65625 20.4375 15.90625 C 21.582031 16.164062 23.09375 16.316406 24.96875 16.359375 L 24.96875 19.03125 L 1.515625 19.03125 L 1.515625 16.359375 C 3.046875 16.316406 4.28125 16.164062 5.21875 15.90625 C 6.15625 15.65625 6.890625 15.195312 7.421875 14.53125 C 7.953125 13.875 8.316406 12.972656 8.515625 11.828125 C 8.722656 10.691406 8.828125 9.210938 8.828125 7.390625 L 8.828125 -21.09375 C 8.828125 -24.03125 8.789062 -26.4375 8.71875 -28.3125 C 8.644531 -30.195312 8.503906 -31.492188 8.296875 -32.203125 C 8.046875 -33.421875 7.460938 -34.242188 6.546875 -34.671875 C 5.628906 -35.109375 3.90625 -35.328125 1.375 -35.328125 L 1.375 -37.90625 L 15.984375 -40.796875 Z M 18.265625 -32.65625 C 17.609375 -31.644531 17.113281 -30.441406 16.78125 -29.046875 C 16.457031 -27.648438 16.296875 -25.832031 16.296875 -23.59375 L 16.296875 -17.65625 C 16.296875 -16.289062 16.332031 -15.113281 16.40625 -14.125 C 16.476562 -13.132812 16.585938 -12.28125 16.734375 -11.5625 C 16.890625 -10.851562 17.09375 -10.21875 17.34375 -9.65625 C 17.601562 -9.101562 17.9375 -8.570312 18.34375 -8.0625 C 19.507812 -6.445312 20.90625 -5.191406 22.53125 -4.296875 C 24.15625 -3.410156 25.859375 -2.96875 27.640625 -2.96875 C 31.140625 -2.96875 33.96875 -4.4375 36.125 -7.375 C 38.28125 -10.320312 39.359375 -14.460938 39.359375 -19.796875 C 39.359375 -22.429688 39.066406 -24.828125 38.484375 -26.984375 C 37.898438 -29.140625 37.070312 -30.988281 36 -32.53125 C 34.9375 -34.082031 33.65625 -35.289062 32.15625 -36.15625 C 30.664062 -37.019531 29.003906 -37.453125 27.171875 -37.453125 C 25.347656 -37.453125 23.660156 -37.03125 22.109375 -36.1875 C 20.566406 -35.351562 19.285156 -34.175781 18.265625 -32.65625 Z M 18.265625 -32.65625 "/></g></g></g><g fill="#454b4d" fill-opacity="1"><g transform="translate(52.390651, 74.521103)"><g><path d="M 39.734375 -7.078125 C 35.421875 -1.847656 30.066406 0.765625 23.671875 0.765625 C 20.679688 0.765625 17.96875 0.269531 15.53125 -0.71875 C 13.09375 -1.707031 11 -3.101562 9.25 -4.90625 C 7.5 -6.707031 6.140625 -8.863281 5.171875 -11.375 C 4.210938 -13.894531 3.734375 -16.675781 3.734375 -19.71875 C 3.734375 -22.8125 4.238281 -25.675781 5.25 -28.3125 C 6.269531 -30.957031 7.703125 -33.21875 9.546875 -35.09375 C 11.398438 -36.96875 13.609375 -38.4375 16.171875 -39.5 C 18.734375 -40.570312 21.539062 -41.109375 24.59375 -41.109375 C 29.507812 -41.109375 33.3125 -39.773438 36 -37.109375 C 38.695312 -34.441406 40.046875 -30.625 40.046875 -25.65625 C 40.046875 -24.945312 39.90625 -24.515625 39.625 -24.359375 C 39.34375 -24.203125 38.695312 -24.125 37.6875 -24.125 L 12.640625 -24.125 C 12.535156 -23.71875 12.457031 -23.222656 12.40625 -22.640625 C 12.351562 -22.054688 12.328125 -21.410156 12.328125 -20.703125 C 12.328125 -18.066406 12.644531 -15.671875 13.28125 -13.515625 C 13.914062 -11.359375 14.828125 -9.515625 16.015625 -7.984375 C 17.210938 -6.460938 18.632812 -5.285156 20.28125 -4.453125 C 21.9375 -3.617188 23.78125 -3.203125 25.8125 -3.203125 C 27.9375 -3.203125 29.910156 -3.671875 31.734375 -4.609375 C 33.566406 -5.546875 35.445312 -7.082031 37.375 -9.21875 Z M 27.171875 -27.640625 C 28.191406 -27.640625 29.003906 -27.660156 29.609375 -27.703125 C 30.222656 -27.753906 30.679688 -27.859375 30.984375 -28.015625 C 31.285156 -28.171875 31.488281 -28.382812 31.59375 -28.65625 C 31.695312 -28.9375 31.75 -29.304688 31.75 -29.765625 C 31.75 -32.097656 31 -33.960938 29.5 -35.359375 C 28 -36.753906 25.957031 -37.453125 23.375 -37.453125 C 17.894531 -37.453125 14.492188 -34.179688 13.171875 -27.640625 Z M 27.171875 -27.640625 "/></g></g></g><g fill="#454b4d" fill-opacity="1"><g transform="translate(96.008104, 74.521103)"><g><path d="M 15.984375 -34.859375 L 16.296875 -34.859375 C 17.921875 -36.796875 19.671875 -38.320312 21.546875 -39.4375 C 23.421875 -40.550781 25.601562 -41.109375 28.09375 -41.109375 C 30.976562 -41.109375 33.625 -40.585938 36.03125 -39.546875 C 38.445312 -38.503906 40.539062 -37.046875 42.3125 -35.171875 C 44.09375 -33.296875 45.476562 -31.078125 46.46875 -28.515625 C 47.457031 -25.953125 47.953125 -23.144531 47.953125 -20.09375 C 47.953125 -17 47.441406 -14.171875 46.421875 -11.609375 C 45.410156 -9.046875 44.015625 -6.847656 42.234375 -5.015625 C 40.460938 -3.191406 38.359375 -1.769531 35.921875 -0.75 C 33.492188 0.257812 30.859375 0.765625 28.015625 0.765625 C 25.679688 0.765625 23.5625 0.375 21.65625 -0.40625 C 19.75 -1.195312 17.960938 -2.484375 16.296875 -4.265625 L 16.296875 6.84375 C 16.296875 8.875 16.394531 10.5 16.59375 11.71875 C 16.800781 12.9375 17.207031 13.875 17.8125 14.53125 C 18.425781 15.195312 19.300781 15.65625 20.4375 15.90625 C 21.582031 16.164062 23.09375 16.316406 24.96875 16.359375 L 24.96875 19.03125 L 1.515625 19.03125 L 1.515625 16.359375 C 3.046875 16.316406 4.28125 16.164062 5.21875 15.90625 C 6.15625 15.65625 6.890625 15.195312 7.421875 14.53125 C 7.953125 13.875 8.316406 12.972656 8.515625 11.828125 C 8.722656 10.691406 8.828125 9.210938 8.828125 7.390625 L 8.828125 -21.09375 C 8.828125 -24.03125 8.789062 -26.4375 8.71875 -28.3125 C 8.644531 -30.195312 8.503906 -31.492188 8.296875 -32.203125 C 8.046875 -33.421875 7.460938 -34.242188 6.546875 -34.671875 C 5.628906 -35.109375 3.90625 -35.328125 1.375 -35.328125 L 1.375 -37.90625 L 15.984375 -40.796875 Z M 18.265625 -32.65625 C 17.609375 -31.644531 17.113281 -30.441406 16.78125 -29.046875 C 16.457031 -27.648438 16.296875 -25.832031 16.296875 -23.59375 L 16.296875 -17.65625 C 16.296875 -16.289062 16.332031 -15.113281 16.40625 -14.125 C 16.476562 -13.132812 16.585938 -12.28125 16.734375 -11.5625 C 16.890625 -10.851562 17.09375 -10.21875 17.34375 -9.65625 C 17.601562 -9.101562 17.9375 -8.570312 18.34375 -8.0625 C 19.507812 -6.445312 20.90625 -5.191406 22.53125 -4.296875 C 24.15625 -3.410156 25.859375 -2.96875 27.640625 -2.96875 C 31.140625 -2.96875 33.96875 -4.4375 36.125 -7.375 C 38.28125 -10.320312 39.359375 -14.460938 39.359375 -19.796875 C 39.359375 -22.429688 39.066406 -24.828125 38.484375 -26.984375 C 37.898438 -29.140625 37.070312 -30.988281 36 -32.53125 C 34.9375 -34.082031 33.65625 -35.289062 32.15625 -36.15625 C 30.664062 -37.019531 29.003906 -37.453125 27.171875 -37.453125 C 25.347656 -37.453125 23.660156 -37.03125 22.109375 -36.1875 C 20.566406 -35.351562 19.285156 -34.175781 18.265625 -32.65625 Z M 18.265625 -32.65625 "/></g></g></g><g fill="#454b4d" fill-opacity="1"><g transform="translate(147.694412, 74.521103)"><g><path d="M 3.046875 -35.546875 L 3.046875 -38.359375 C 5.734375 -39.941406 7.835938 -41.519531 9.359375 -43.09375 C 10.878906 -44.664062 12.046875 -46.539062 12.859375 -48.71875 L 15.078125 -48.71875 L 15.078125 -39.125 L 25.28125 -39.125 L 25.28125 -35.546875 L 15.078125 -35.546875 L 15.078125 -12.40625 C 15.078125 -10.632812 15.164062 -9.140625 15.34375 -7.921875 C 15.519531 -6.703125 15.8125 -5.722656 16.21875 -4.984375 C 16.625 -4.242188 17.15625 -3.722656 17.8125 -3.421875 C 18.46875 -3.117188 19.304688 -2.96875 20.328125 -2.96875 C 21.597656 -2.96875 22.675781 -3.234375 23.5625 -3.765625 C 24.445312 -4.296875 25.320312 -5.195312 26.1875 -6.46875 L 28.09375 -5.03125 C 27.382812 -3.144531 26.148438 -1.707031 24.390625 -0.71875 C 22.640625 0.269531 20.472656 0.765625 17.890625 0.765625 C 14.535156 0.765625 11.984375 -0.03125 10.234375 -1.625 C 8.484375 -3.226562 7.609375 -5.53125 7.609375 -8.53125 L 7.609375 -35.546875 Z M 3.046875 -35.546875 "/></g></g></g><g fill="#454b4d" fill-opacity="1"><g transform="translate(176.470761, 74.521103)"><g><path d="M 9.96875 -25.125 C 10.675781 -27.101562 11.179688 -28.703125 11.484375 -29.921875 C 11.796875 -31.140625 11.953125 -32.101562 11.953125 -32.8125 C 11.953125 -33.519531 11.835938 -33.988281 11.609375 -34.21875 C 11.378906 -34.445312 11.140625 -34.5625 10.890625 -34.5625 C 10.328125 -34.5625 9.710938 -34.296875 9.046875 -33.765625 C 8.390625 -33.234375 7.734375 -32.609375 7.078125 -31.890625 C 6.421875 -31.179688 5.835938 -30.472656 5.328125 -29.765625 C 4.816406 -29.054688 4.460938 -28.5 4.265625 -28.09375 L 2.0625 -29.453125 C 2.664062 -30.578125 3.515625 -31.820312 4.609375 -33.1875 C 5.703125 -34.5625 6.929688 -35.832031 8.296875 -37 C 9.671875 -38.164062 11.09375 -39.140625 12.5625 -39.921875 C 14.03125 -40.710938 15.425781 -41.109375 16.75 -41.109375 C 18.019531 -41.109375 18.96875 -40.738281 19.59375 -40 C 20.226562 -39.269531 20.546875 -37.9375 20.546875 -36 C 20.546875 -34.53125 20.101562 -32.550781 19.21875 -30.0625 C 18.332031 -27.582031 17.179688 -24.390625 15.765625 -20.484375 L 12.9375 -12.78125 C 12.832031 -12.53125 12.691406 -12.140625 12.515625 -11.609375 C 12.335938 -11.078125 12.160156 -10.519531 11.984375 -9.9375 C 11.804688 -9.351562 11.65625 -8.78125 11.53125 -8.21875 C 11.40625 -7.664062 11.34375 -7.207031 11.34375 -6.84375 C 11.34375 -6.394531 11.46875 -5.988281 11.71875 -5.625 C 11.976562 -5.269531 12.382812 -5.09375 12.9375 -5.09375 C 13.695312 -5.09375 14.484375 -5.410156 15.296875 -6.046875 C 16.109375 -6.679688 16.894531 -7.429688 17.65625 -8.296875 C 18.414062 -9.160156 19.097656 -10.035156 19.703125 -10.921875 C 20.316406 -11.804688 20.78125 -12.503906 21.09375 -13.015625 L 23.375 -11.71875 C 22.757812 -10.5 21.929688 -9.15625 20.890625 -7.6875 C 19.847656 -6.21875 18.664062 -4.859375 17.34375 -3.609375 C 16.03125 -2.367188 14.585938 -1.328125 13.015625 -0.484375 C 11.441406 0.347656 9.816406 0.765625 8.140625 0.765625 C 6.671875 0.765625 5.566406 0.382812 4.828125 -0.375 C 4.097656 -1.132812 3.734375 -2.40625 3.734375 -4.1875 C 3.734375 -5.65625 3.972656 -7.238281 4.453125 -8.9375 C 4.929688 -10.644531 5.628906 -12.789062 6.546875 -15.375 Z M 21.15625 -53.59375 C 19.894531 -53.59375 18.789062 -54.023438 17.84375 -54.890625 C 16.90625 -55.753906 16.4375 -56.867188 16.4375 -58.234375 C 16.4375 -59.609375 16.894531 -60.773438 17.8125 -61.734375 C 18.726562 -62.703125 19.84375 -63.1875 21.15625 -63.1875 C 22.582031 -63.1875 23.75 -62.703125 24.65625 -61.734375 C 25.570312 -60.773438 26.03125 -59.632812 26.03125 -58.3125 C 26.03125 -56.988281 25.546875 -55.867188 24.578125 -54.953125 C 23.617188 -54.046875 22.476562 -53.59375 21.15625 -53.59375 Z M 21.15625 -53.59375 "/></g></g></g><g fill="#454b4d" fill-opacity="1"><g transform="translate(202.658048, 74.521103)"><g><path d="M 36.84375 -6.390625 L 36.546875 -6.390625 C 34.710938 -3.804688 32.769531 -1.96875 30.71875 -0.875 C 28.664062 0.21875 26.242188 0.765625 23.453125 0.765625 C 20.554688 0.765625 17.898438 0.242188 15.484375 -0.796875 C 13.078125 -1.835938 11 -3.285156 9.25 -5.140625 C 7.5 -6.992188 6.128906 -9.210938 5.140625 -11.796875 C 4.148438 -14.390625 3.65625 -17.207031 3.65625 -20.25 C 3.65625 -23.238281 4.148438 -26.015625 5.140625 -28.578125 C 6.128906 -31.140625 7.5 -33.347656 9.25 -35.203125 C 11 -37.054688 13.09375 -38.503906 15.53125 -39.546875 C 17.96875 -40.585938 20.609375 -41.109375 23.453125 -41.109375 C 25.878906 -41.109375 28.046875 -40.703125 29.953125 -39.890625 C 31.859375 -39.078125 33.695312 -37.78125 35.46875 -36 L 35.46875 -43.765625 C 35.46875 -46.660156 35.429688 -49.070312 35.359375 -51 C 35.285156 -52.925781 35.171875 -54.25 35.015625 -54.96875 C 34.765625 -56.082031 34.054688 -56.863281 32.890625 -57.3125 C 31.722656 -57.769531 29.816406 -58 27.171875 -58 L 27.171875 -60.296875 L 42.78125 -63.1875 L 42.78125 -19.265625 C 42.78125 -15.753906 42.804688 -12.867188 42.859375 -10.609375 C 42.910156 -8.359375 43.0625 -6.75 43.3125 -5.78125 C 43.46875 -5.175781 43.660156 -4.671875 43.890625 -4.265625 C 44.117188 -3.859375 44.445312 -3.539062 44.875 -3.3125 C 45.300781 -3.082031 45.882812 -2.914062 46.625 -2.8125 C 47.363281 -2.71875 48.316406 -2.671875 49.484375 -2.671875 L 49.484375 -0.078125 L 36.84375 0.765625 Z M 35.328125 -23.21875 C 35.328125 -25.851562 35.1875 -27.851562 34.90625 -29.21875 C 34.625 -30.59375 34.078125 -31.789062 33.265625 -32.8125 C 32.097656 -34.332031 30.613281 -35.484375 28.8125 -36.265625 C 27.007812 -37.054688 25.222656 -37.453125 23.453125 -37.453125 C 19.796875 -37.453125 17.015625 -35.941406 15.109375 -32.921875 C 13.203125 -29.898438 12.25 -25.800781 12.25 -20.625 C 12.25 -17.9375 12.488281 -15.5 12.96875 -13.3125 C 13.457031 -11.132812 14.171875 -9.269531 15.109375 -7.71875 C 16.046875 -6.175781 17.210938 -4.984375 18.609375 -4.140625 C 20.003906 -3.304688 21.617188 -2.890625 23.453125 -2.890625 C 24.359375 -2.890625 25.28125 -2.988281 26.21875 -3.1875 C 27.164062 -3.394531 28.082031 -3.710938 28.96875 -4.140625 C 29.851562 -4.578125 30.675781 -5.085938 31.4375 -5.671875 C 32.195312 -6.253906 32.832031 -6.925781 33.34375 -7.6875 C 34.050781 -8.800781 34.554688 -10.144531 34.859375 -11.71875 C 35.171875 -13.289062 35.328125 -15.445312 35.328125 -18.1875 Z M 35.328125 -23.21875 "/></g></g></g><g fill="#454b4d" fill-opacity="1"><g transform="translate(254.039863, 74.521103)"><g><path d="M 39.734375 -7.078125 C 35.421875 -1.847656 30.066406 0.765625 23.671875 0.765625 C 20.679688 0.765625 17.96875 0.269531 15.53125 -0.71875 C 13.09375 -1.707031 11 -3.101562 9.25 -4.90625 C 7.5 -6.707031 6.140625 -8.863281 5.171875 -11.375 C 4.210938 -13.894531 3.734375 -16.675781 3.734375 -19.71875 C 3.734375 -22.8125 4.238281 -25.675781 5.25 -28.3125 C 6.269531 -30.957031 7.703125 -33.21875 9.546875 -35.09375 C 11.398438 -36.96875 13.609375 -38.4375 16.171875 -39.5 C 18.734375 -40.570312 21.539062 -41.109375 24.59375 -41.109375 C 29.507812 -41.109375 33.3125 -39.773438 36 -37.109375 C 38.695312 -34.441406 40.046875 -30.625 40.046875 -25.65625 C 40.046875 -24.945312 39.90625 -24.515625 39.625 -24.359375 C 39.34375 -24.203125 38.695312 -24.125 37.6875 -24.125 L 12.640625 -24.125 C 12.535156 -23.71875 12.457031 -23.222656 12.40625 -22.640625 C 12.351562 -22.054688 12.328125 -21.410156 12.328125 -20.703125 C 12.328125 -18.066406 12.644531 -15.671875 13.28125 -13.515625 C 13.914062 -11.359375 14.828125 -9.515625 16.015625 -7.984375 C 17.210938 -6.460938 18.632812 -5.285156 20.28125 -4.453125 C 21.9375 -3.617188 23.78125 -3.203125 25.8125 -3.203125 C 27.9375 -3.203125 29.910156 -3.671875 31.734375 -4.609375 C 33.566406 -5.546875 35.445312 -7.082031 37.375 -9.21875 Z M 27.171875 -27.640625 C 28.191406 -27.640625 29.003906 -27.660156 29.609375 -27.703125 C 30.222656 -27.753906 30.679688 -27.859375 30.984375 -28.015625 C 31.285156 -28.171875 31.488281 -28.382812 31.59375 -28.65625 C 31.695312 -28.9375 31.75 -29.304688 31.75 -29.765625 C 31.75 -32.097656 31 -33.960938 29.5 -35.359375 C 28 -36.753906 25.957031 -37.453125 23.375 -37.453125 C 17.894531 -37.453125 14.492188 -34.179688 13.171875 -27.640625 Z M 27.171875 -27.640625 "/></g></g></g></g></g><g fill="#c7a69c" fill-opacity="1"><g transform="translate(145.461485, 115.787016)"><g><path d="M 2.046875 0 L 2.046875 -19.046875 L 8.8125 -19.046875 C 11.039062 -19.046875 12.796875 -18.5 14.078125 -17.40625 C 15.367188 -16.3125 16.015625 -14.8125 16.015625 -12.90625 C 16.015625 -10.96875 15.363281 -9.457031 14.0625 -8.375 C 12.769531 -7.289062 11.039062 -6.75 8.875 -6.75 L 5.1875 -6.75 L 5.1875 0 Z M 8.796875 -16.515625 L 5.1875 -16.515625 L 5.1875 -9.265625 L 8.703125 -9.265625 C 10.035156 -9.265625 11.050781 -9.59375 11.75 -10.25 C 12.445312 -10.90625 12.796875 -11.78125 12.796875 -12.875 C 12.796875 -13.976562 12.445312 -14.859375 11.75 -15.515625 C 11.050781 -16.179688 10.066406 -16.515625 8.796875 -16.515625 Z M 8.796875 -16.515625 "/></g></g></g><g fill="#c7a69c" fill-opacity="1"><g transform="translate(176.455105, 115.787016)"><g><path d="M 2.046875 0 L 2.046875 -19.046875 L 9.1875 -19.046875 C 11.238281 -19.046875 12.867188 -18.550781 14.078125 -17.5625 C 15.296875 -16.570312 15.90625 -15.234375 15.90625 -13.546875 C 15.90625 -12.460938 15.671875 -11.546875 15.203125 -10.796875 C 14.734375 -10.054688 14.070312 -9.472656 13.21875 -9.046875 C 13.78125 -8.742188 14.226562 -8.328125 14.5625 -7.796875 C 14.894531 -7.265625 15.164062 -6.570312 15.375 -5.71875 L 16.796875 0 L 13.5 0 L 12.34375 -5.09375 C 12.175781 -5.820312 11.957031 -6.375 11.6875 -6.75 C 11.414062 -7.125 11.0625 -7.375 10.625 -7.5 C 10.1875 -7.632812 9.613281 -7.703125 8.90625 -7.703125 L 5.1875 -7.703125 L 5.1875 0 Z M 9.09375 -16.515625 L 5.1875 -16.515625 L 5.1875 -10.21875 L 9.046875 -10.21875 C 10.203125 -10.21875 11.097656 -10.5 11.734375 -11.0625 C 12.367188 -11.632812 12.6875 -12.410156 12.6875 -13.390625 C 12.6875 -14.335938 12.375 -15.09375 11.75 -15.65625 C 11.125 -16.226562 10.238281 -16.515625 9.09375 -16.515625 Z M 9.09375 -16.515625 "/></g></g></g><g fill="#c7a69c" fill-opacity="1"><g transform="translate(208.00865, 115.787016)"><g><path d="M 2.046875 0 L 2.046875 -19.046875 L 5.1875 -19.046875 L 5.1875 0 Z M 2.046875 0 "/></g></g></g><g fill="#c7a69c" fill-opacity="1"><g transform="translate(229.147614, 115.787016)"><g><path d="M 18.109375 -13.390625 L 14.84375 -13.390625 C 14.519531 -14.484375 13.929688 -15.316406 13.078125 -15.890625 C 12.234375 -16.472656 11.242188 -16.765625 10.109375 -16.765625 C 8.367188 -16.765625 7.007812 -16.113281 6.03125 -14.8125 C 5.050781 -13.519531 4.5625 -11.742188 4.5625 -9.484375 C 4.5625 -7.234375 5.046875 -5.46875 6.015625 -4.1875 C 6.984375 -2.90625 8.347656 -2.265625 10.109375 -2.265625 C 11.210938 -2.265625 12.175781 -2.539062 13 -3.09375 C 13.832031 -3.644531 14.425781 -4.460938 14.78125 -5.546875 L 18.09375 -5.546875 C 17.75 -4.296875 17.1875 -3.226562 16.40625 -2.34375 C 15.625 -1.457031 14.691406 -0.785156 13.609375 -0.328125 C 12.523438 0.128906 11.359375 0.359375 10.109375 0.359375 C 8.296875 0.359375 6.734375 -0.0351562 5.421875 -0.828125 C 4.117188 -1.617188 3.117188 -2.75 2.421875 -4.21875 C 1.722656 -5.695312 1.375 -7.453125 1.375 -9.484375 C 1.375 -11.523438 1.726562 -13.285156 2.4375 -14.765625 C 3.144531 -16.253906 4.15625 -17.398438 5.46875 -18.203125 C 6.789062 -19.003906 8.363281 -19.40625 10.1875 -19.40625 C 11.457031 -19.40625 12.632812 -19.175781 13.71875 -18.71875 C 14.800781 -18.257812 15.726562 -17.585938 16.5 -16.703125 C 17.28125 -15.816406 17.816406 -14.710938 18.109375 -13.390625 Z M 18.109375 -13.390625 "/></g></g></g><g fill="#c7a69c" fill-opacity="1"><g transform="translate(262.268943, 115.787016)"><g><path d="M 2.046875 0 L 2.046875 -19.046875 L 15.171875 -19.046875 L 15.171875 -16.515625 L 5.1875 -16.515625 L 5.1875 -11.09375 L 14.109375 -11.09375 L 14.109375 -8.59375 L 5.1875 -8.59375 L 5.1875 -2.515625 L 15.171875 -2.515625 L 15.171875 0 Z M 2.046875 0 "/></g></g></g><g fill="#c7a69c" fill-opacity="1"><g transform="translate(292.534661, 115.787016)"><g/></g></g><g fill="#c7a69c" fill-opacity="1"><g transform="translate(311.937855, 115.787016)"><g><path d="M 2.046875 0 L 2.046875 -19.046875 L 5.1875 -19.046875 L 5.1875 -2.546875 L 14.390625 -2.546875 L 14.390625 0 Z M 2.046875 0 "/></g></g></g><g fill="#c7a69c" fill-opacity="1"><g transform="translate(341.083712, 115.787016)"><g><path d="M 15.515625 0 L 13.890625 -4.28125 L 5.203125 -4.28125 L 3.578125 0 L 0.453125 0 L 7.78125 -19.046875 L 11.453125 -19.046875 L 18.78125 0 Z M 8.984375 -14.171875 L 6.15625 -6.75 L 12.9375 -6.75 L 10.109375 -14.171875 L 9.546875 -16.015625 Z M 8.984375 -14.171875 "/></g></g></g><g fill="#c7a69c" fill-opacity="1"><g transform="translate(374.261047, 115.787016)"><g><path d="M 2.046875 0 L 2.046875 -19.046875 L 9.046875 -19.046875 C 11.054688 -19.046875 12.65625 -18.582031 13.84375 -17.65625 C 15.03125 -16.726562 15.625 -15.460938 15.625 -13.859375 C 15.625 -12.984375 15.40625 -12.210938 14.96875 -11.546875 C 14.53125 -10.890625 13.898438 -10.382812 13.078125 -10.03125 C 14.253906 -9.664062 15.148438 -9.085938 15.765625 -8.296875 C 16.378906 -7.503906 16.6875 -6.550781 16.6875 -5.4375 C 16.6875 -3.71875 16.097656 -2.378906 14.921875 -1.421875 C 13.742188 -0.472656 12.101562 0 10 0 Z M 8.953125 -16.546875 L 5.1875 -16.546875 L 5.1875 -10.953125 L 8.90625 -10.953125 C 10.019531 -10.953125 10.878906 -11.207031 11.484375 -11.71875 C 12.097656 -12.226562 12.40625 -12.882812 12.40625 -13.6875 C 12.40625 -14.570312 12.097656 -15.269531 11.484375 -15.78125 C 10.878906 -16.289062 10.035156 -16.546875 8.953125 -16.546875 Z M 9.609375 -8.515625 L 5.1875 -8.515625 L 5.1875 -2.484375 L 9.90625 -2.484375 C 11.007812 -2.484375 11.878906 -2.757812 12.515625 -3.3125 C 13.148438 -3.863281 13.46875 -4.597656 13.46875 -5.515625 C 13.46875 -6.429688 13.125 -7.160156 12.4375 -7.703125 C 11.757812 -8.242188 10.816406 -8.515625 9.609375 -8.515625 Z M 9.609375 -8.515625 "/></g></g></g><path stroke-linecap="butt" transform="matrix(0, 0.75, -0.75, 0, 128.279279, 15.000001)" fill="none" stroke-linejoin="miter" d="M -0.0000015 0.50258 L 160.000008 0.50258 " stroke="#f5ede7" stroke-width="1" stroke-opacity="1" stroke-miterlimit="4"/></svg>