<svg xmlns="http://www.w3.org/2000/svg" xmlns:xlink="http://www.w3.org/1999/xlink" width="600" zoomAndPan="magnify" viewBox="0 0 450 149.999998" height="200" preserveAspectRatio="xMidYMid meet" version="1.0"><defs><filter x="0%" y="0%" width="100%" height="100%" id="fbce6c6c2d"><feColorMatrix values="0 0 0 0 1 0 0 0 0 1 0 0 0 0 1 0 0 0 1 0" color-interpolation-filters="sRGB"/></filter><g/><clipPath id="35dc98217e"><path d="M 70 53 L 106.5 53 L 106.5 94 L 70 94 Z M 70 53 " clip-rule="nonzero"/></clipPath><clipPath id="b9a460fd03"><path d="M 0 0 L 450 0 L 450 150 L 0 150 Z M 0 0 " clip-rule="nonzero"/></clipPath><linearGradient x1="813.67999" gradientTransform="matrix(0.18922, 0, 0, 0.18918, 136.184161, -4.411228)" y1="23.317576" x2="813.67999" gradientUnits="userSpaceOnUse" y2="816.211158" id="6fd0671d83"><stop stop-opacity="1" stop-color="rgb(48.239136%, 18.429565%, 100%)" offset="0"/><stop stop-opacity="1" stop-color="rgb(48.338318%, 18.388367%, 100%)" offset="0.015625"/><stop stop-opacity="1" stop-color="rgb(48.602295%, 18.278503%, 100%)" offset="0.0234375"/><stop stop-opacity="1" stop-color="rgb(48.933411%, 18.1427%, 100%)" offset="0.03125"/><stop stop-opacity="1" stop-color="rgb(49.264526%, 18.006897%, 100%)" offset="0.0390625"/><stop stop-opacity="1" stop-color="rgb(49.595642%, 17.869568%, 100%)" offset="0.046875"/><stop stop-opacity="1" stop-color="rgb(49.925232%, 17.733765%, 100%)" offset="0.0546875"/><stop stop-opacity="1" stop-color="rgb(50.256348%, 17.597961%, 100%)" offset="0.0625"/><stop stop-opacity="1" stop-color="rgb(50.587463%, 17.460632%, 100%)" offset="0.0703125"/><stop stop-opacity="1" stop-color="rgb(50.918579%, 17.324829%, 100%)" offset="0.078125"/><stop stop-opacity="1" stop-color="rgb(51.249695%, 17.189026%, 100%)" offset="0.0859375"/><stop stop-opacity="1" stop-color="rgb(51.580811%, 17.051697%, 100%)" offset="0.09375"/><stop stop-opacity="1" stop-color="rgb(51.911926%, 16.915894%, 100%)" offset="0.101563"/><stop stop-opacity="1" stop-color="rgb(52.243042%, 16.78009%, 100%)" offset="0.109375"/><stop stop-opacity="1" stop-color="rgb(52.574158%, 16.642761%, 100%)" offset="0.117188"/><stop stop-opacity="1" stop-color="rgb(52.903748%, 16.506958%, 100%)" offset="0.125"/><stop stop-opacity="1" stop-color="rgb(53.234863%, 16.371155%, 100%)" offset="0.132812"/><stop stop-opacity="1" stop-color="rgb(53.565979%, 16.233826%, 100%)" offset="0.140625"/><stop stop-opacity="1" stop-color="rgb(53.897095%, 16.098022%, 100%)" offset="0.148438"/><stop stop-opacity="1" stop-color="rgb(54.22821%, 15.962219%, 100%)" offset="0.15625"/><stop stop-opacity="1" stop-color="rgb(54.559326%, 15.82489%, 100%)" offset="0.164063"/><stop stop-opacity="1" stop-color="rgb(54.890442%, 15.689087%, 100%)" offset="0.171875"/><stop stop-opacity="1" stop-color="rgb(55.221558%, 15.553284%, 100%)" offset="0.179688"/><stop stop-opacity="1" stop-color="rgb(55.552673%, 15.415955%, 100%)" offset="0.1875"/><stop stop-opacity="1" stop-color="rgb(55.882263%, 15.280151%, 100%)" offset="0.195312"/><stop stop-opacity="1" stop-color="rgb(56.213379%, 15.144348%, 100%)" offset="0.203125"/><stop stop-opacity="1" stop-color="rgb(56.544495%, 15.007019%, 100%)" offset="0.210938"/><stop stop-opacity="1" stop-color="rgb(56.87561%, 14.871216%, 100%)" offset="0.21875"/><stop stop-opacity="1" stop-color="rgb(57.206726%, 14.735413%, 100%)" offset="0.226563"/><stop stop-opacity="1" stop-color="rgb(57.537842%, 14.598083%, 100%)" offset="0.234375"/><stop stop-opacity="1" stop-color="rgb(57.868958%, 14.46228%, 100%)" offset="0.242188"/><stop stop-opacity="1" stop-color="rgb(58.200073%, 14.326477%, 100%)" offset="0.25"/><stop stop-opacity="1" stop-color="rgb(58.531189%, 14.190674%, 100%)" offset="0.257813"/><stop stop-opacity="1" stop-color="rgb(58.862305%, 14.053345%, 100%)" offset="0.265625"/><stop stop-opacity="1" stop-color="rgb(59.191895%, 13.917542%, 100%)" offset="0.273438"/><stop stop-opacity="1" stop-color="rgb(59.52301%, 13.781738%, 100%)" offset="0.28125"/><stop stop-opacity="1" stop-color="rgb(59.854126%, 13.644409%, 100%)" offset="0.289063"/><stop stop-opacity="1" stop-color="rgb(60.185242%, 13.508606%, 100%)" offset="0.296875"/><stop stop-opacity="1" stop-color="rgb(60.516357%, 13.372803%, 100%)" offset="0.304688"/><stop stop-opacity="1" stop-color="rgb(60.847473%, 13.235474%, 100%)" offset="0.3125"/><stop stop-opacity="1" stop-color="rgb(61.178589%, 13.09967%, 100%)" offset="0.320312"/><stop stop-opacity="1" stop-color="rgb(61.509705%, 12.963867%, 100%)" offset="0.328125"/><stop stop-opacity="1" stop-color="rgb(61.84082%, 12.826538%, 100%)" offset="0.335938"/><stop stop-opacity="1" stop-color="rgb(62.17041%, 12.690735%, 100%)" offset="0.34375"/><stop stop-opacity="1" stop-color="rgb(62.501526%, 12.554932%, 100%)" offset="0.351562"/><stop stop-opacity="1" stop-color="rgb(62.832642%, 12.417603%, 100%)" offset="0.359375"/><stop stop-opacity="1" stop-color="rgb(63.163757%, 12.281799%, 100%)" offset="0.367188"/><stop stop-opacity="1" stop-color="rgb(63.494873%, 12.145996%, 100%)" offset="0.375"/><stop stop-opacity="1" stop-color="rgb(63.825989%, 12.008667%, 100%)" offset="0.382812"/><stop stop-opacity="1" stop-color="rgb(64.157104%, 11.872864%, 100%)" offset="0.390625"/><stop stop-opacity="1" stop-color="rgb(64.48822%, 11.737061%, 100%)" offset="0.398437"/><stop stop-opacity="1" stop-color="rgb(64.819336%, 11.599731%, 100%)" offset="0.40625"/><stop stop-opacity="1" stop-color="rgb(65.148926%, 11.463928%, 100%)" offset="0.414062"/><stop stop-opacity="1" stop-color="rgb(65.480042%, 11.328125%, 100%)" offset="0.421875"/><stop stop-opacity="1" stop-color="rgb(65.811157%, 11.190796%, 100%)" offset="0.429687"/><stop stop-opacity="1" stop-color="rgb(66.142273%, 11.054993%, 100%)" offset="0.4375"/><stop stop-opacity="1" stop-color="rgb(66.473389%, 10.919189%, 100%)" offset="0.445312"/><stop stop-opacity="1" stop-color="rgb(66.804504%, 10.78186%, 100%)" offset="0.453125"/><stop stop-opacity="1" stop-color="rgb(67.13562%, 10.646057%, 100%)" offset="0.460938"/><stop stop-opacity="1" stop-color="rgb(67.466736%, 10.510254%, 100%)" offset="0.46875"/><stop stop-opacity="1" stop-color="rgb(67.797852%, 10.372925%, 100%)" offset="0.476562"/><stop stop-opacity="1" stop-color="rgb(68.128967%, 10.237122%, 100%)" offset="0.484375"/><stop stop-opacity="1" stop-color="rgb(68.458557%, 10.101318%, 100%)" offset="0.492188"/><stop stop-opacity="1" stop-color="rgb(68.789673%, 9.963989%, 100%)" offset="0.5"/><stop stop-opacity="1" stop-color="rgb(69.120789%, 9.828186%, 100%)" offset="0.507812"/><stop stop-opacity="1" stop-color="rgb(69.451904%, 9.692383%, 100%)" offset="0.515625"/><stop stop-opacity="1" stop-color="rgb(69.78302%, 9.555054%, 100%)" offset="0.523438"/><stop stop-opacity="1" stop-color="rgb(70.114136%, 9.41925%, 100%)" offset="0.53125"/><stop stop-opacity="1" stop-color="rgb(70.445251%, 9.283447%, 100%)" offset="0.539062"/><stop stop-opacity="1" stop-color="rgb(70.776367%, 9.146118%, 100%)" offset="0.546875"/><stop stop-opacity="1" stop-color="rgb(71.107483%, 9.010315%, 100%)" offset="0.554688"/><stop stop-opacity="1" stop-color="rgb(71.437073%, 8.874512%, 100%)" offset="0.5625"/><stop stop-opacity="1" stop-color="rgb(71.768188%, 8.737183%, 100%)" offset="0.570312"/><stop stop-opacity="1" stop-color="rgb(72.099304%, 8.601379%, 100%)" offset="0.578125"/><stop stop-opacity="1" stop-color="rgb(72.43042%, 8.465576%, 100%)" offset="0.585938"/><stop stop-opacity="1" stop-color="rgb(72.761536%, 8.328247%, 100%)" offset="0.59375"/><stop stop-opacity="1" stop-color="rgb(73.092651%, 8.192444%, 100%)" offset="0.601563"/><stop stop-opacity="1" stop-color="rgb(73.423767%, 8.056641%, 100%)" offset="0.609375"/><stop stop-opacity="1" stop-color="rgb(73.754883%, 7.919312%, 100%)" offset="0.617188"/><stop stop-opacity="1" stop-color="rgb(74.085999%, 7.783508%, 100%)" offset="0.625"/><stop stop-opacity="1" stop-color="rgb(74.415588%, 7.647705%, 100%)" offset="0.632812"/><stop stop-opacity="1" stop-color="rgb(74.740601%, 7.513428%, 100%)" offset="0.640625"/><stop stop-opacity="1" stop-color="rgb(74.899292%, 7.449341%, 100%)" offset="0.65625"/><stop stop-opacity="1" stop-color="rgb(74.899292%, 7.449341%, 100%)" offset="0.6875"/><stop stop-opacity="1" stop-color="rgb(74.899292%, 7.449341%, 100%)" offset="0.75"/><stop stop-opacity="1" stop-color="rgb(74.899292%, 7.449341%, 100%)" offset="1"/></linearGradient><clipPath id="bd5476af44"><rect x="0" width="450" y="0" height="150"/></clipPath><clipPath id="b311cb5fd6"><rect x="0" width="450" y="0" height="150"/></clipPath><clipPath id="7cdd8e4f8a"><rect x="0" width="450" y="0" height="150"/></clipPath><mask id="42785532c6"><g filter="url(#fbce6c6c2d)"><g transform="matrix(1, 0, 0, 1, 0, -0.000000000000007527)"><g clip-path="url(#7cdd8e4f8a)"><g transform="matrix(1, 0, 0, 1, 0, -0.000000000000007527)"><g clip-path="url(#b311cb5fd6)"><g fill="#000000" fill-opacity="1"><g transform="translate(141.704337, 75.521112)"><g><path d="M 15.984375 -34.859375 L 16.296875 -34.859375 C 17.921875 -36.796875 19.671875 -38.320312 21.546875 -39.4375 C 23.421875 -40.550781 25.601562 -41.109375 28.09375 -41.109375 C 30.976562 -41.109375 33.625 -40.585938 36.03125 -39.546875 C 38.445312 -38.503906 40.539062 -37.046875 42.3125 -35.171875 C 44.09375 -33.296875 45.476562 -31.078125 46.46875 -28.515625 C 47.457031 -25.953125 47.953125 -23.144531 47.953125 -20.09375 C 47.953125 -17 47.441406 -14.171875 46.421875 -11.609375 C 45.410156 -9.046875 44.015625 -6.847656 42.234375 -5.015625 C 40.460938 -3.191406 38.359375 -1.769531 35.921875 -0.75 C 33.492188 0.257812 30.859375 0.765625 28.015625 0.765625 C 25.679688 0.765625 23.5625 0.375 21.65625 -0.40625 C 19.75 -1.195312 17.960938 -2.484375 16.296875 -4.265625 L 16.296875 6.84375 C 16.296875 8.875 16.394531 10.5 16.59375 11.71875 C 16.800781 12.9375 17.207031 13.875 17.8125 14.53125 C 18.425781 15.195312 19.300781 15.65625 20.4375 15.90625 C 21.582031 16.164062 23.09375 16.316406 24.96875 16.359375 L 24.96875 19.03125 L 1.515625 19.03125 L 1.515625 16.359375 C 3.046875 16.316406 4.28125 16.164062 5.21875 15.90625 C 6.15625 15.65625 6.890625 15.195312 7.421875 14.53125 C 7.953125 13.875 8.316406 12.972656 8.515625 11.828125 C 8.722656 10.691406 8.828125 9.210938 8.828125 7.390625 L 8.828125 -21.09375 C 8.828125 -24.03125 8.789062 -26.4375 8.71875 -28.3125 C 8.644531 -30.195312 8.503906 -31.492188 8.296875 -32.203125 C 8.046875 -33.421875 7.460938 -34.242188 6.546875 -34.671875 C 5.628906 -35.109375 3.90625 -35.328125 1.375 -35.328125 L 1.375 -37.90625 L 15.984375 -40.796875 Z M 18.265625 -32.65625 C 17.609375 -31.644531 17.113281 -30.441406 16.78125 -29.046875 C 16.457031 -27.648438 16.296875 -25.832031 16.296875 -23.59375 L 16.296875 -17.65625 C 16.296875 -16.289062 16.332031 -15.113281 16.40625 -14.125 C 16.476562 -13.132812 16.585938 -12.28125 16.734375 -11.5625 C 16.890625 -10.851562 17.09375 -10.21875 17.34375 -9.65625 C 17.601562 -9.101562 17.9375 -8.570312 18.34375 -8.0625 C 19.507812 -6.445312 20.90625 -5.191406 22.53125 -4.296875 C 24.15625 -3.410156 25.859375 -2.96875 27.640625 -2.96875 C 31.140625 -2.96875 33.96875 -4.4375 36.125 -7.375 C 38.28125 -10.320312 39.359375 -14.460938 39.359375 -19.796875 C 39.359375 -22.429688 39.066406 -24.828125 38.484375 -26.984375 C 37.898438 -29.140625 37.070312 -30.988281 36 -32.53125 C 34.9375 -34.082031 33.65625 -35.289062 32.15625 -36.15625 C 30.664062 -37.019531 29.003906 -37.453125 27.171875 -37.453125 C 25.347656 -37.453125 23.660156 -37.03125 22.109375 -36.1875 C 20.566406 -35.351562 19.285156 -34.175781 18.265625 -32.65625 Z M 18.265625 -32.65625 "/></g></g></g><g fill="#000000" fill-opacity="1"><g transform="translate(193.39065, 75.521112)"><g><path d="M 39.734375 -7.078125 C 35.421875 -1.847656 30.066406 0.765625 23.671875 0.765625 C 20.679688 0.765625 17.96875 0.269531 15.53125 -0.71875 C 13.09375 -1.707031 11 -3.101562 9.25 -4.90625 C 7.5 -6.707031 6.140625 -8.863281 5.171875 -11.375 C 4.210938 -13.894531 3.734375 -16.675781 3.734375 -19.71875 C 3.734375 -22.8125 4.238281 -25.675781 5.25 -28.3125 C 6.269531 -30.957031 7.703125 -33.21875 9.546875 -35.09375 C 11.398438 -36.96875 13.609375 -38.4375 16.171875 -39.5 C 18.734375 -40.570312 21.539062 -41.109375 24.59375 -41.109375 C 29.507812 -41.109375 33.3125 -39.773438 36 -37.109375 C 38.695312 -34.441406 40.046875 -30.625 40.046875 -25.65625 C 40.046875 -24.945312 39.90625 -24.515625 39.625 -24.359375 C 39.34375 -24.203125 38.695312 -24.125 37.6875 -24.125 L 12.640625 -24.125 C 12.535156 -23.71875 12.457031 -23.222656 12.40625 -22.640625 C 12.351562 -22.054688 12.328125 -21.410156 12.328125 -20.703125 C 12.328125 -18.066406 12.644531 -15.671875 13.28125 -13.515625 C 13.914062 -11.359375 14.828125 -9.515625 16.015625 -7.984375 C 17.210938 -6.460938 18.632812 -5.285156 20.28125 -4.453125 C 21.9375 -3.617188 23.78125 -3.203125 25.8125 -3.203125 C 27.9375 -3.203125 29.910156 -3.671875 31.734375 -4.609375 C 33.566406 -5.546875 35.445312 -7.082031 37.375 -9.21875 Z M 27.171875 -27.640625 C 28.191406 -27.640625 29.003906 -27.660156 29.609375 -27.703125 C 30.222656 -27.753906 30.679688 -27.859375 30.984375 -28.015625 C 31.285156 -28.171875 31.488281 -28.382812 31.59375 -28.65625 C 31.695312 -28.9375 31.75 -29.304688 31.75 -29.765625 C 31.75 -32.097656 31 -33.960938 29.5 -35.359375 C 28 -36.753906 25.957031 -37.453125 23.375 -37.453125 C 17.894531 -37.453125 14.492188 -34.179688 13.171875 -27.640625 Z M 27.171875 -27.640625 "/></g></g></g><g fill="#000000" fill-opacity="1"><g transform="translate(237.008103, 75.521112)"><g><path d="M 15.984375 -34.859375 L 16.296875 -34.859375 C 17.921875 -36.796875 19.671875 -38.320312 21.546875 -39.4375 C 23.421875 -40.550781 25.601562 -41.109375 28.09375 -41.109375 C 30.976562 -41.109375 33.625 -40.585938 36.03125 -39.546875 C 38.445312 -38.503906 40.539062 -37.046875 42.3125 -35.171875 C 44.09375 -33.296875 45.476562 -31.078125 46.46875 -28.515625 C 47.457031 -25.953125 47.953125 -23.144531 47.953125 -20.09375 C 47.953125 -17 47.441406 -14.171875 46.421875 -11.609375 C 45.410156 -9.046875 44.015625 -6.847656 42.234375 -5.015625 C 40.460938 -3.191406 38.359375 -1.769531 35.921875 -0.75 C 33.492188 0.257812 30.859375 0.765625 28.015625 0.765625 C 25.679688 0.765625 23.5625 0.375 21.65625 -0.40625 C 19.75 -1.195312 17.960938 -2.484375 16.296875 -4.265625 L 16.296875 6.84375 C 16.296875 8.875 16.394531 10.5 16.59375 11.71875 C 16.800781 12.9375 17.207031 13.875 17.8125 14.53125 C 18.425781 15.195312 19.300781 15.65625 20.4375 15.90625 C 21.582031 16.164062 23.09375 16.316406 24.96875 16.359375 L 24.96875 19.03125 L 1.515625 19.03125 L 1.515625 16.359375 C 3.046875 16.316406 4.28125 16.164062 5.21875 15.90625 C 6.15625 15.65625 6.890625 15.195312 7.421875 14.53125 C 7.953125 13.875 8.316406 12.972656 8.515625 11.828125 C 8.722656 10.691406 8.828125 9.210938 8.828125 7.390625 L 8.828125 -21.09375 C 8.828125 -24.03125 8.789062 -26.4375 8.71875 -28.3125 C 8.644531 -30.195312 8.503906 -31.492188 8.296875 -32.203125 C 8.046875 -33.421875 7.460938 -34.242188 6.546875 -34.671875 C 5.628906 -35.109375 3.90625 -35.328125 1.375 -35.328125 L 1.375 -37.90625 L 15.984375 -40.796875 Z M 18.265625 -32.65625 C 17.609375 -31.644531 17.113281 -30.441406 16.78125 -29.046875 C 16.457031 -27.648438 16.296875 -25.832031 16.296875 -23.59375 L 16.296875 -17.65625 C 16.296875 -16.289062 16.332031 -15.113281 16.40625 -14.125 C 16.476562 -13.132812 16.585938 -12.28125 16.734375 -11.5625 C 16.890625 -10.851562 17.09375 -10.21875 17.34375 -9.65625 C 17.601562 -9.101562 17.9375 -8.570312 18.34375 -8.0625 C 19.507812 -6.445312 20.90625 -5.191406 22.53125 -4.296875 C 24.15625 -3.410156 25.859375 -2.96875 27.640625 -2.96875 C 31.140625 -2.96875 33.96875 -4.4375 36.125 -7.375 C 38.28125 -10.320312 39.359375 -14.460938 39.359375 -19.796875 C 39.359375 -22.429688 39.066406 -24.828125 38.484375 -26.984375 C 37.898438 -29.140625 37.070312 -30.988281 36 -32.53125 C 34.9375 -34.082031 33.65625 -35.289062 32.15625 -36.15625 C 30.664062 -37.019531 29.003906 -37.453125 27.171875 -37.453125 C 25.347656 -37.453125 23.660156 -37.03125 22.109375 -36.1875 C 20.566406 -35.351562 19.285156 -34.175781 18.265625 -32.65625 Z M 18.265625 -32.65625 "/></g></g></g><g fill="#000000" fill-opacity="1"><g transform="translate(288.694411, 75.521112)"><g><path d="M 3.046875 -35.546875 L 3.046875 -38.359375 C 5.734375 -39.941406 7.835938 -41.519531 9.359375 -43.09375 C 10.878906 -44.664062 12.046875 -46.539062 12.859375 -48.71875 L 15.078125 -48.71875 L 15.078125 -39.125 L 25.28125 -39.125 L 25.28125 -35.546875 L 15.078125 -35.546875 L 15.078125 -12.40625 C 15.078125 -10.632812 15.164062 -9.140625 15.34375 -7.921875 C 15.519531 -6.703125 15.8125 -5.722656 16.21875 -4.984375 C 16.625 -4.242188 17.15625 -3.722656 17.8125 -3.421875 C 18.46875 -3.117188 19.304688 -2.96875 20.328125 -2.96875 C 21.597656 -2.96875 22.675781 -3.234375 23.5625 -3.765625 C 24.445312 -4.296875 25.320312 -5.195312 26.1875 -6.46875 L 28.09375 -5.03125 C 27.382812 -3.144531 26.148438 -1.707031 24.390625 -0.71875 C 22.640625 0.269531 20.472656 0.765625 17.890625 0.765625 C 14.535156 0.765625 11.984375 -0.03125 10.234375 -1.625 C 8.484375 -3.226562 7.609375 -5.53125 7.609375 -8.53125 L 7.609375 -35.546875 Z M 3.046875 -35.546875 "/></g></g></g><g fill="#000000" fill-opacity="1"><g transform="translate(317.47076, 75.521112)"><g><path d="M 9.96875 -25.125 C 10.675781 -27.101562 11.179688 -28.703125 11.484375 -29.921875 C 11.796875 -31.140625 11.953125 -32.101562 11.953125 -32.8125 C 11.953125 -33.519531 11.835938 -33.988281 11.609375 -34.21875 C 11.378906 -34.445312 11.140625 -34.5625 10.890625 -34.5625 C 10.328125 -34.5625 9.710938 -34.296875 9.046875 -33.765625 C 8.390625 -33.234375 7.734375 -32.609375 7.078125 -31.890625 C 6.421875 -31.179688 5.835938 -30.472656 5.328125 -29.765625 C 4.816406 -29.054688 4.460938 -28.5 4.265625 -28.09375 L 2.0625 -29.453125 C 2.664062 -30.578125 3.515625 -31.820312 4.609375 -33.1875 C 5.703125 -34.5625 6.929688 -35.832031 8.296875 -37 C 9.671875 -38.164062 11.09375 -39.140625 12.5625 -39.921875 C 14.03125 -40.710938 15.425781 -41.109375 16.75 -41.109375 C 18.019531 -41.109375 18.96875 -40.738281 19.59375 -40 C 20.226562 -39.269531 20.546875 -37.9375 20.546875 -36 C 20.546875 -34.53125 20.101562 -32.550781 19.21875 -30.0625 C 18.332031 -27.582031 17.179688 -24.390625 15.765625 -20.484375 L 12.9375 -12.78125 C 12.832031 -12.53125 12.691406 -12.140625 12.515625 -11.609375 C 12.335938 -11.078125 12.160156 -10.519531 11.984375 -9.9375 C 11.804688 -9.351562 11.65625 -8.78125 11.53125 -8.21875 C 11.40625 -7.664062 11.34375 -7.207031 11.34375 -6.84375 C 11.34375 -6.394531 11.46875 -5.988281 11.71875 -5.625 C 11.976562 -5.269531 12.382812 -5.09375 12.9375 -5.09375 C 13.695312 -5.09375 14.484375 -5.410156 15.296875 -6.046875 C 16.109375 -6.679688 16.894531 -7.429688 17.65625 -8.296875 C 18.414062 -9.160156 19.097656 -10.035156 19.703125 -10.921875 C 20.316406 -11.804688 20.78125 -12.503906 21.09375 -13.015625 L 23.375 -11.71875 C 22.757812 -10.5 21.929688 -9.15625 20.890625 -7.6875 C 19.847656 -6.21875 18.664062 -4.859375 17.34375 -3.609375 C 16.03125 -2.367188 14.585938 -1.328125 13.015625 -0.484375 C 11.441406 0.347656 9.816406 0.765625 8.140625 0.765625 C 6.671875 0.765625 5.566406 0.382812 4.828125 -0.375 C 4.097656 -1.132812 3.734375 -2.40625 3.734375 -4.1875 C 3.734375 -5.65625 3.972656 -7.238281 4.453125 -8.9375 C 4.929688 -10.644531 5.628906 -12.789062 6.546875 -15.375 Z M 21.15625 -53.59375 C 19.894531 -53.59375 18.789062 -54.023438 17.84375 -54.890625 C 16.90625 -55.753906 16.4375 -56.867188 16.4375 -58.234375 C 16.4375 -59.609375 16.894531 -60.773438 17.8125 -61.734375 C 18.726562 -62.703125 19.84375 -63.1875 21.15625 -63.1875 C 22.582031 -63.1875 23.75 -62.703125 24.65625 -61.734375 C 25.570312 -60.773438 26.03125 -59.632812 26.03125 -58.3125 C 26.03125 -56.988281 25.546875 -55.867188 24.578125 -54.953125 C 23.617188 -54.046875 22.476562 -53.59375 21.15625 -53.59375 Z M 21.15625 -53.59375 "/></g></g></g><g fill="#000000" fill-opacity="1"><g transform="translate(343.658048, 75.521112)"><g><path d="M 36.84375 -6.390625 L 36.546875 -6.390625 C 34.710938 -3.804688 32.769531 -1.96875 30.71875 -0.875 C 28.664062 0.21875 26.242188 0.765625 23.453125 0.765625 C 20.554688 0.765625 17.898438 0.242188 15.484375 -0.796875 C 13.078125 -1.835938 11 -3.285156 9.25 -5.140625 C 7.5 -6.992188 6.128906 -9.210938 5.140625 -11.796875 C 4.148438 -14.390625 3.65625 -17.207031 3.65625 -20.25 C 3.65625 -23.238281 4.148438 -26.015625 5.140625 -28.578125 C 6.128906 -31.140625 7.5 -33.347656 9.25 -35.203125 C 11 -37.054688 13.09375 -38.503906 15.53125 -39.546875 C 17.96875 -40.585938 20.609375 -41.109375 23.453125 -41.109375 C 25.878906 -41.109375 28.046875 -40.703125 29.953125 -39.890625 C 31.859375 -39.078125 33.695312 -37.78125 35.46875 -36 L 35.46875 -43.765625 C 35.46875 -46.660156 35.429688 -49.070312 35.359375 -51 C 35.285156 -52.925781 35.171875 -54.25 35.015625 -54.96875 C 34.765625 -56.082031 34.054688 -56.863281 32.890625 -57.3125 C 31.722656 -57.769531 29.816406 -58 27.171875 -58 L 27.171875 -60.296875 L 42.78125 -63.1875 L 42.78125 -19.265625 C 42.78125 -15.753906 42.804688 -12.867188 42.859375 -10.609375 C 42.910156 -8.359375 43.0625 -6.75 43.3125 -5.78125 C 43.46875 -5.175781 43.660156 -4.671875 43.890625 -4.265625 C 44.117188 -3.859375 44.445312 -3.539062 44.875 -3.3125 C 45.300781 -3.082031 45.882812 -2.914062 46.625 -2.8125 C 47.363281 -2.71875 48.316406 -2.671875 49.484375 -2.671875 L 49.484375 -0.078125 L 36.84375 0.765625 Z M 35.328125 -23.21875 C 35.328125 -25.851562 35.1875 -27.851562 34.90625 -29.21875 C 34.625 -30.59375 34.078125 -31.789062 33.265625 -32.8125 C 32.097656 -34.332031 30.613281 -35.484375 28.8125 -36.265625 C 27.007812 -37.054688 25.222656 -37.453125 23.453125 -37.453125 C 19.796875 -37.453125 17.015625 -35.941406 15.109375 -32.921875 C 13.203125 -29.898438 12.25 -25.800781 12.25 -20.625 C 12.25 -17.9375 12.488281 -15.5 12.96875 -13.3125 C 13.457031 -11.132812 14.171875 -9.269531 15.109375 -7.71875 C 16.046875 -6.175781 17.210938 -4.984375 18.609375 -4.140625 C 20.003906 -3.304688 21.617188 -2.890625 23.453125 -2.890625 C 24.359375 -2.890625 25.28125 -2.988281 26.21875 -3.1875 C 27.164062 -3.394531 28.082031 -3.710938 28.96875 -4.140625 C 29.851562 -4.578125 30.675781 -5.085938 31.4375 -5.671875 C 32.195312 -6.253906 32.832031 -6.925781 33.34375 -7.6875 C 34.050781 -8.800781 34.554688 -10.144531 34.859375 -11.71875 C 35.171875 -13.289062 35.328125 -15.445312 35.328125 -18.1875 Z M 35.328125 -23.21875 "/></g></g></g><g fill="#000000" fill-opacity="1"><g transform="translate(395.039862, 75.521112)"><g><path d="M 39.734375 -7.078125 C 35.421875 -1.847656 30.066406 0.765625 23.671875 0.765625 C 20.679688 0.765625 17.96875 0.269531 15.53125 -0.71875 C 13.09375 -1.707031 11 -3.101562 9.25 -4.90625 C 7.5 -6.707031 6.140625 -8.863281 5.171875 -11.375 C 4.210938 -13.894531 3.734375 -16.675781 3.734375 -19.71875 C 3.734375 -22.8125 4.238281 -25.675781 5.25 -28.3125 C 6.269531 -30.957031 7.703125 -33.21875 9.546875 -35.09375 C 11.398438 -36.96875 13.609375 -38.4375 16.171875 -39.5 C 18.734375 -40.570312 21.539062 -41.109375 24.59375 -41.109375 C 29.507812 -41.109375 33.3125 -39.773438 36 -37.109375 C 38.695312 -34.441406 40.046875 -30.625 40.046875 -25.65625 C 40.046875 -24.945312 39.90625 -24.515625 39.625 -24.359375 C 39.34375 -24.203125 38.695312 -24.125 37.6875 -24.125 L 12.640625 -24.125 C 12.535156 -23.71875 12.457031 -23.222656 12.40625 -22.640625 C 12.351562 -22.054688 12.328125 -21.410156 12.328125 -20.703125 C 12.328125 -18.066406 12.644531 -15.671875 13.28125 -13.515625 C 13.914062 -11.359375 14.828125 -9.515625 16.015625 -7.984375 C 17.210938 -6.460938 18.632812 -5.285156 20.28125 -4.453125 C 21.9375 -3.617188 23.78125 -3.203125 25.8125 -3.203125 C 27.9375 -3.203125 29.910156 -3.671875 31.734375 -4.609375 C 33.566406 -5.546875 35.445312 -7.082031 37.375 -9.21875 Z M 27.171875 -27.640625 C 28.191406 -27.640625 29.003906 -27.660156 29.609375 -27.703125 C 30.222656 -27.753906 30.679688 -27.859375 30.984375 -28.015625 C 31.285156 -28.171875 31.488281 -28.382812 31.59375 -28.65625 C 31.695312 -28.9375 31.75 -29.304688 31.75 -29.765625 C 31.75 -32.097656 31 -33.960938 29.5 -35.359375 C 28 -36.753906 25.957031 -37.453125 23.375 -37.453125 C 17.894531 -37.453125 14.492188 -34.179688 13.171875 -27.640625 Z M 27.171875 -27.640625 "/></g></g></g></g></g></g></g></g></mask><clipPath id="965b4d91d7"><path d="M 0 0 L 450 0 L 450 150 L 0 150 Z M 0 0 " clip-rule="nonzero"/></clipPath><clipPath id="53d4c645ec"><rect x="0" width="450" y="0" height="150"/></clipPath><clipPath id="c993b061fb"><rect x="0" width="450" y="0" height="150"/></clipPath><clipPath id="fa19290b5e"><rect x="0" width="450" y="0" height="150"/></clipPath><clipPath id="21fe94e3ed"><path d="M 89.210938 30.285156 L 450 30.285156 L 450 150 L 89.210938 150 Z M 89.210938 30.285156 " clip-rule="nonzero"/></clipPath><clipPath id="49d6bbf58e"><path d="M 0.210938 0.285156 L 361 0.285156 L 361 120 L 0.210938 120 Z M 0.210938 0.285156 " clip-rule="nonzero"/></clipPath><clipPath id="576b92ef9f"><path d="M 0.214844 2.535156 L 361 2.535156 L 361 120 L 0.214844 120 Z M 0.214844 2.535156 " clip-rule="nonzero"/></clipPath><linearGradient x1="173.664" gradientTransform="matrix(0.74899, 0, 0, 0.748721, 56.138442, 56.194891)" y1="-71.666" x2="173.664" gradientUnits="userSpaceOnUse" y2="85.218748" id="fb956df62f"><stop stop-opacity="1" stop-color="rgb(0%, 89.7995%, 100%)" offset="0"/><stop stop-opacity="1" stop-color="rgb(0%, 89.7995%, 100%)" offset="0.25"/><stop stop-opacity="1" stop-color="rgb(0%, 89.7995%, 100%)" offset="0.375"/><stop stop-opacity="1" stop-color="rgb(0%, 89.7995%, 100%)" offset="0.4375"/><stop stop-opacity="1" stop-color="rgb(0%, 89.7995%, 100%)" offset="0.46875"/><stop stop-opacity="1" stop-color="rgb(0%, 89.753723%, 99.971008%)" offset="0.476562"/><stop stop-opacity="1" stop-color="rgb(0%, 89.143372%, 99.603271%)" offset="0.480469"/><stop stop-opacity="1" stop-color="rgb(0%, 88.578796%, 99.264526%)" offset="0.484375"/><stop stop-opacity="1" stop-color="rgb(0%, 88.014221%, 98.924255%)" offset="0.488281"/><stop stop-opacity="1" stop-color="rgb(0%, 87.451172%, 98.58551%)" offset="0.492188"/><stop stop-opacity="1" stop-color="rgb(0%, 86.886597%, 98.245239%)" offset="0.496094"/><stop stop-opacity="1" stop-color="rgb(0%, 86.322021%, 97.906494%)" offset="0.5"/><stop stop-opacity="1" stop-color="rgb(0%, 85.757446%, 97.566223%)" offset="0.503906"/><stop stop-opacity="1" stop-color="rgb(0%, 85.194397%, 97.227478%)" offset="0.507812"/><stop stop-opacity="1" stop-color="rgb(0%, 84.629822%, 96.887207%)" offset="0.511719"/><stop stop-opacity="1" stop-color="rgb(0%, 84.065247%, 96.548462%)" offset="0.515625"/><stop stop-opacity="1" stop-color="rgb(0%, 83.500671%, 96.208191%)" offset="0.519531"/><stop stop-opacity="1" stop-color="rgb(0%, 82.937622%, 95.869446%)" offset="0.523438"/><stop stop-opacity="1" stop-color="rgb(0%, 82.373047%, 95.529175%)" offset="0.527344"/><stop stop-opacity="1" stop-color="rgb(0%, 81.808472%, 95.19043%)" offset="0.53125"/><stop stop-opacity="1" stop-color="rgb(0%, 81.243896%, 94.850159%)" offset="0.535156"/><stop stop-opacity="1" stop-color="rgb(0%, 80.680847%, 94.511414%)" offset="0.539062"/><stop stop-opacity="1" stop-color="rgb(0%, 80.116272%, 94.171143%)" offset="0.542969"/><stop stop-opacity="1" stop-color="rgb(0%, 79.551697%, 93.830872%)" offset="0.546875"/><stop stop-opacity="1" stop-color="rgb(0%, 78.987122%, 93.490601%)" offset="0.550781"/><stop stop-opacity="1" stop-color="rgb(0%, 78.424072%, 93.151855%)" offset="0.554688"/><stop stop-opacity="1" stop-color="rgb(0%, 77.859497%, 92.811584%)" offset="0.558594"/><stop stop-opacity="1" stop-color="rgb(0%, 77.294922%, 92.472839%)" offset="0.5625"/><stop stop-opacity="1" stop-color="rgb(0%, 76.730347%, 92.132568%)" offset="0.566406"/><stop stop-opacity="1" stop-color="rgb(0%, 76.167297%, 91.793823%)" offset="0.570312"/><stop stop-opacity="1" stop-color="rgb(0%, 75.602722%, 91.453552%)" offset="0.574219"/><stop stop-opacity="1" stop-color="rgb(0%, 75.038147%, 91.114807%)" offset="0.578125"/><stop stop-opacity="1" stop-color="rgb(0%, 74.473572%, 90.774536%)" offset="0.582031"/><stop stop-opacity="1" stop-color="rgb(0%, 73.910522%, 90.435791%)" offset="0.585938"/><stop stop-opacity="1" stop-color="rgb(0%, 73.345947%, 90.09552%)" offset="0.589844"/><stop stop-opacity="1" stop-color="rgb(0%, 72.781372%, 89.756775%)" offset="0.59375"/><stop stop-opacity="1" stop-color="rgb(0%, 72.216797%, 89.416504%)" offset="0.597656"/><stop stop-opacity="1" stop-color="rgb(0%, 71.653748%, 89.077759%)" offset="0.601562"/><stop stop-opacity="1" stop-color="rgb(0%, 71.089172%, 88.737488%)" offset="0.605469"/><stop stop-opacity="1" stop-color="rgb(0%, 70.524597%, 88.398743%)" offset="0.609375"/><stop stop-opacity="1" stop-color="rgb(0%, 69.960022%, 88.058472%)" offset="0.613281"/><stop stop-opacity="1" stop-color="rgb(0%, 69.396973%, 87.719727%)" offset="0.617188"/><stop stop-opacity="1" stop-color="rgb(0%, 68.832397%, 87.379456%)" offset="0.621094"/><stop stop-opacity="1" stop-color="rgb(0%, 68.267822%, 87.039185%)" offset="0.625"/><stop stop-opacity="1" stop-color="rgb(0%, 67.703247%, 86.698914%)" offset="0.628906"/><stop stop-opacity="1" stop-color="rgb(0%, 67.140198%, 86.360168%)" offset="0.632813"/><stop stop-opacity="1" stop-color="rgb(0%, 66.575623%, 86.019897%)" offset="0.636719"/><stop stop-opacity="1" stop-color="rgb(0%, 66.011047%, 85.681152%)" offset="0.640625"/><stop stop-opacity="1" stop-color="rgb(0%, 65.446472%, 85.340881%)" offset="0.644531"/><stop stop-opacity="1" stop-color="rgb(0%, 64.883423%, 85.002136%)" offset="0.648438"/><stop stop-opacity="1" stop-color="rgb(0%, 64.318848%, 84.661865%)" offset="0.652344"/><stop stop-opacity="1" stop-color="rgb(0%, 63.754272%, 84.32312%)" offset="0.65625"/><stop stop-opacity="1" stop-color="rgb(0%, 63.189697%, 83.982849%)" offset="0.660156"/><stop stop-opacity="1" stop-color="rgb(0%, 62.626648%, 83.644104%)" offset="0.664062"/><stop stop-opacity="1" stop-color="rgb(0%, 62.062073%, 83.303833%)" offset="0.667969"/><stop stop-opacity="1" stop-color="rgb(0%, 61.497498%, 82.965088%)" offset="0.671875"/><stop stop-opacity="1" stop-color="rgb(0%, 60.932922%, 82.624817%)" offset="0.675781"/><stop stop-opacity="1" stop-color="rgb(0%, 60.369873%, 82.286072%)" offset="0.679688"/><stop stop-opacity="1" stop-color="rgb(0%, 59.805298%, 81.945801%)" offset="0.683594"/><stop stop-opacity="1" stop-color="rgb(0%, 59.240723%, 81.607056%)" offset="0.6875"/><stop stop-opacity="1" stop-color="rgb(0%, 58.676147%, 81.266785%)" offset="0.691406"/><stop stop-opacity="1" stop-color="rgb(0%, 58.111572%, 80.926514%)" offset="0.695312"/><stop stop-opacity="1" stop-color="rgb(0%, 57.546997%, 80.586243%)" offset="0.699219"/><stop stop-opacity="1" stop-color="rgb(0%, 56.983948%, 80.247498%)" offset="0.703125"/><stop stop-opacity="1" stop-color="rgb(0%, 56.419373%, 79.907227%)" offset="0.707031"/><stop stop-opacity="1" stop-color="rgb(0%, 55.854797%, 79.568481%)" offset="0.710938"/><stop stop-opacity="1" stop-color="rgb(0%, 55.290222%, 79.22821%)" offset="0.714844"/><stop stop-opacity="1" stop-color="rgb(0%, 54.727173%, 78.889465%)" offset="0.71875"/><stop stop-opacity="1" stop-color="rgb(0%, 54.162598%, 78.549194%)" offset="0.722656"/><stop stop-opacity="1" stop-color="rgb(0%, 53.598022%, 78.210449%)" offset="0.726562"/><stop stop-opacity="1" stop-color="rgb(0%, 53.033447%, 77.870178%)" offset="0.730469"/><stop stop-opacity="1" stop-color="rgb(0%, 52.470398%, 77.531433%)" offset="0.734375"/><stop stop-opacity="1" stop-color="rgb(0%, 51.905823%, 77.191162%)" offset="0.738281"/><stop stop-opacity="1" stop-color="rgb(0%, 51.341248%, 76.852417%)" offset="0.742188"/><stop stop-opacity="1" stop-color="rgb(0%, 50.776672%, 76.512146%)" offset="0.746094"/><stop stop-opacity="1" stop-color="rgb(0%, 50.213623%, 76.173401%)" offset="0.75"/><stop stop-opacity="1" stop-color="rgb(0%, 49.649048%, 75.83313%)" offset="0.753906"/><stop stop-opacity="1" stop-color="rgb(0%, 49.084473%, 75.494385%)" offset="0.757812"/><stop stop-opacity="1" stop-color="rgb(0%, 48.519897%, 75.154114%)" offset="0.761719"/><stop stop-opacity="1" stop-color="rgb(0%, 47.956848%, 74.815369%)" offset="0.765625"/><stop stop-opacity="1" stop-color="rgb(0%, 47.702026%, 74.661255%)" offset="0.769531"/><stop stop-opacity="1" stop-color="rgb(0%, 47.44873%, 74.508667%)" offset="0.773438"/><stop stop-opacity="1" stop-color="rgb(0%, 47.44873%, 74.508667%)" offset="0.78125"/><stop stop-opacity="1" stop-color="rgb(0%, 47.44873%, 74.508667%)" offset="0.8125"/><stop stop-opacity="1" stop-color="rgb(0%, 47.44873%, 74.508667%)" offset="0.875"/><stop stop-opacity="1" stop-color="rgb(0%, 47.44873%, 74.508667%)" offset="1"/></linearGradient><clipPath id="cc34cf6943"><rect x="0" width="361" y="0" height="120"/></clipPath><clipPath id="01f3a82f3d"><path d="M 0.210938 0.285156 L 361 0.285156 L 361 120 L 0.210938 120 Z M 0.210938 0.285156 " clip-rule="nonzero"/></clipPath><clipPath id="38bb9188b9"><rect x="0" width="361" y="0" height="120"/></clipPath><clipPath id="c8ebcd574b"><rect x="0" width="361" y="0" height="120"/></clipPath><mask id="d96a17fb3c"><g filter="url(#fbce6c6c2d)"><g transform="matrix(1, 0, 0, 1, 0, -0.000000000000007105)"><g clip-path="url(#c8ebcd574b)"><g clip-path="url(#01f3a82f3d)"><g transform="matrix(1, 0, 0, 1, 0, -0.000000000000007105)"><g clip-path="url(#38bb9188b9)"><g fill="#000000" fill-opacity="1"><g transform="translate(56.461485, 85.787009)"><g><path d="M 2.046875 0 L 2.046875 -19.046875 L 8.8125 -19.046875 C 11.039062 -19.046875 12.796875 -18.5 14.078125 -17.40625 C 15.367188 -16.3125 16.015625 -14.8125 16.015625 -12.90625 C 16.015625 -10.96875 15.363281 -9.457031 14.0625 -8.375 C 12.769531 -7.289062 11.039062 -6.75 8.875 -6.75 L 5.1875 -6.75 L 5.1875 0 Z M 8.796875 -16.515625 L 5.1875 -16.515625 L 5.1875 -9.265625 L 8.703125 -9.265625 C 10.035156 -9.265625 11.050781 -9.59375 11.75 -10.25 C 12.445312 -10.90625 12.796875 -11.78125 12.796875 -12.875 C 12.796875 -13.976562 12.445312 -14.859375 11.75 -15.515625 C 11.050781 -16.179688 10.066406 -16.515625 8.796875 -16.515625 Z M 8.796875 -16.515625 "/></g></g></g><g fill="#000000" fill-opacity="1"><g transform="translate(87.455105, 85.787009)"><g><path d="M 2.046875 0 L 2.046875 -19.046875 L 9.1875 -19.046875 C 11.238281 -19.046875 12.867188 -18.550781 14.078125 -17.5625 C 15.296875 -16.570312 15.90625 -15.234375 15.90625 -13.546875 C 15.90625 -12.460938 15.671875 -11.546875 15.203125 -10.796875 C 14.734375 -10.054688 14.070312 -9.472656 13.21875 -9.046875 C 13.78125 -8.742188 14.226562 -8.328125 14.5625 -7.796875 C 14.894531 -7.265625 15.164062 -6.570312 15.375 -5.71875 L 16.796875 0 L 13.5 0 L 12.34375 -5.09375 C 12.175781 -5.820312 11.957031 -6.375 11.6875 -6.75 C 11.414062 -7.125 11.0625 -7.375 10.625 -7.5 C 10.1875 -7.632812 9.613281 -7.703125 8.90625 -7.703125 L 5.1875 -7.703125 L 5.1875 0 Z M 9.09375 -16.515625 L 5.1875 -16.515625 L 5.1875 -10.21875 L 9.046875 -10.21875 C 10.203125 -10.21875 11.097656 -10.5 11.734375 -11.0625 C 12.367188 -11.632812 12.6875 -12.410156 12.6875 -13.390625 C 12.6875 -14.335938 12.375 -15.09375 11.75 -15.65625 C 11.125 -16.226562 10.238281 -16.515625 9.09375 -16.515625 Z M 9.09375 -16.515625 "/></g></g></g><g fill="#000000" fill-opacity="1"><g transform="translate(119.00865, 85.787009)"><g><path d="M 2.046875 0 L 2.046875 -19.046875 L 5.1875 -19.046875 L 5.1875 0 Z M 2.046875 0 "/></g></g></g><g fill="#000000" fill-opacity="1"><g transform="translate(140.147614, 85.787009)"><g><path d="M 18.109375 -13.390625 L 14.84375 -13.390625 C 14.519531 -14.484375 13.929688 -15.316406 13.078125 -15.890625 C 12.234375 -16.472656 11.242188 -16.765625 10.109375 -16.765625 C 8.367188 -16.765625 7.007812 -16.113281 6.03125 -14.8125 C 5.050781 -13.519531 4.5625 -11.742188 4.5625 -9.484375 C 4.5625 -7.234375 5.046875 -5.46875 6.015625 -4.1875 C 6.984375 -2.90625 8.347656 -2.265625 10.109375 -2.265625 C 11.210938 -2.265625 12.175781 -2.539062 13 -3.09375 C 13.832031 -3.644531 14.425781 -4.460938 14.78125 -5.546875 L 18.09375 -5.546875 C 17.75 -4.296875 17.1875 -3.226562 16.40625 -2.34375 C 15.625 -1.457031 14.691406 -0.785156 13.609375 -0.328125 C 12.523438 0.128906 11.359375 0.359375 10.109375 0.359375 C 8.296875 0.359375 6.734375 -0.0351562 5.421875 -0.828125 C 4.117188 -1.617188 3.117188 -2.75 2.421875 -4.21875 C 1.722656 -5.695312 1.375 -7.453125 1.375 -9.484375 C 1.375 -11.523438 1.726562 -13.285156 2.4375 -14.765625 C 3.144531 -16.253906 4.15625 -17.398438 5.46875 -18.203125 C 6.789062 -19.003906 8.363281 -19.40625 10.1875 -19.40625 C 11.457031 -19.40625 12.632812 -19.175781 13.71875 -18.71875 C 14.800781 -18.257812 15.726562 -17.585938 16.5 -16.703125 C 17.28125 -15.816406 17.816406 -14.710938 18.109375 -13.390625 Z M 18.109375 -13.390625 "/></g></g></g><g fill="#000000" fill-opacity="1"><g transform="translate(173.268943, 85.787009)"><g><path d="M 2.046875 0 L 2.046875 -19.046875 L 15.171875 -19.046875 L 15.171875 -16.515625 L 5.1875 -16.515625 L 5.1875 -11.09375 L 14.109375 -11.09375 L 14.109375 -8.59375 L 5.1875 -8.59375 L 5.1875 -2.515625 L 15.171875 -2.515625 L 15.171875 0 Z M 2.046875 0 "/></g></g></g><g fill="#000000" fill-opacity="1"><g transform="translate(203.534661, 85.787009)"><g/></g></g><g fill="#000000" fill-opacity="1"><g transform="translate(222.937855, 85.787009)"><g><path d="M 2.046875 0 L 2.046875 -19.046875 L 5.1875 -19.046875 L 5.1875 -2.546875 L 14.390625 -2.546875 L 14.390625 0 Z M 2.046875 0 "/></g></g></g><g fill="#000000" fill-opacity="1"><g transform="translate(252.083712, 85.787009)"><g><path d="M 15.515625 0 L 13.890625 -4.28125 L 5.203125 -4.28125 L 3.578125 0 L 0.453125 0 L 7.78125 -19.046875 L 11.453125 -19.046875 L 18.78125 0 Z M 8.984375 -14.171875 L 6.15625 -6.75 L 12.9375 -6.75 L 10.109375 -14.171875 L 9.546875 -16.015625 Z M 8.984375 -14.171875 "/></g></g></g><g fill="#000000" fill-opacity="1"><g transform="translate(285.261047, 85.787009)"><g><path d="M 2.046875 0 L 2.046875 -19.046875 L 9.046875 -19.046875 C 11.054688 -19.046875 12.65625 -18.582031 13.84375 -17.65625 C 15.03125 -16.726562 15.625 -15.460938 15.625 -13.859375 C 15.625 -12.984375 15.40625 -12.210938 14.96875 -11.546875 C 14.53125 -10.890625 13.898438 -10.382812 13.078125 -10.03125 C 14.253906 -9.664062 15.148438 -9.085938 15.765625 -8.296875 C 16.378906 -7.503906 16.6875 -6.550781 16.6875 -5.4375 C 16.6875 -3.71875 16.097656 -2.378906 14.921875 -1.421875 C 13.742188 -0.472656 12.101562 0 10 0 Z M 8.953125 -16.546875 L 5.1875 -16.546875 L 5.1875 -10.953125 L 8.90625 -10.953125 C 10.019531 -10.953125 10.878906 -11.207031 11.484375 -11.71875 C 12.097656 -12.226562 12.40625 -12.882812 12.40625 -13.6875 C 12.40625 -14.570312 12.097656 -15.269531 11.484375 -15.78125 C 10.878906 -16.289062 10.035156 -16.546875 8.953125 -16.546875 Z M 9.609375 -8.515625 L 5.1875 -8.515625 L 5.1875 -2.484375 L 9.90625 -2.484375 C 11.007812 -2.484375 11.878906 -2.757812 12.515625 -3.3125 C 13.148438 -3.863281 13.46875 -4.597656 13.46875 -5.515625 C 13.46875 -6.429688 13.125 -7.160156 12.4375 -7.703125 C 11.757812 -8.242188 10.816406 -8.515625 9.609375 -8.515625 Z M 9.609375 -8.515625 "/></g></g></g></g></g></g></g></g></g></mask><clipPath id="064b9b3c28"><path d="M 0.214844 2.535156 L 361 2.535156 L 361 120 L 0.214844 120 Z M 0.214844 2.535156 " clip-rule="nonzero"/></clipPath><clipPath id="5198257c1f"><rect x="0" width="361" y="0" height="120"/></clipPath><clipPath id="4860b0a3fe"><rect x="0" width="361" y="0" height="120"/></clipPath><linearGradient x1="80" gradientTransform="matrix(1, 0, 0, 1, 0.000000833333, -0.00000659329)" y1="0.00000659329" x2="80" gradientUnits="userSpaceOnUse" y2="1.000007" id="4baf2bdac9"><stop stop-opacity="1" stop-color="rgb(0%, 89.7995%, 99.998474%)" offset="0"/><stop stop-opacity="1" stop-color="rgb(0%, 89.633179%, 99.899292%)" offset="0.0078125"/><stop stop-opacity="1" stop-color="rgb(0%, 89.302063%, 99.699402%)" offset="0.015625"/><stop stop-opacity="1" stop-color="rgb(0%, 88.970947%, 99.501038%)" offset="0.0234375"/><stop stop-opacity="1" stop-color="rgb(0%, 88.639832%, 99.301147%)" offset="0.03125"/><stop stop-opacity="1" stop-color="rgb(0%, 88.308716%, 99.102783%)" offset="0.0390625"/><stop stop-opacity="1" stop-color="rgb(0%, 87.979126%, 98.902893%)" offset="0.046875"/><stop stop-opacity="1" stop-color="rgb(0%, 87.64801%, 98.704529%)" offset="0.0546875"/><stop stop-opacity="1" stop-color="rgb(0%, 87.316895%, 98.504639%)" offset="0.0625"/><stop stop-opacity="1" stop-color="rgb(0%, 86.985779%, 98.306274%)" offset="0.0703125"/><stop stop-opacity="1" stop-color="rgb(0%, 86.654663%, 98.106384%)" offset="0.078125"/><stop stop-opacity="1" stop-color="rgb(0%, 86.323547%, 97.90802%)" offset="0.0859375"/><stop stop-opacity="1" stop-color="rgb(0%, 85.993958%, 97.70813%)" offset="0.09375"/><stop stop-opacity="1" stop-color="rgb(0%, 85.662842%, 97.509766%)" offset="0.101562"/><stop stop-opacity="1" stop-color="rgb(0%, 85.331726%, 97.309875%)" offset="0.109375"/><stop stop-opacity="1" stop-color="rgb(0%, 85.00061%, 97.111511%)" offset="0.117188"/><stop stop-opacity="1" stop-color="rgb(0%, 84.669495%, 96.911621%)" offset="0.125"/><stop stop-opacity="1" stop-color="rgb(0%, 84.339905%, 96.713257%)" offset="0.132812"/><stop stop-opacity="1" stop-color="rgb(0%, 84.008789%, 96.513367%)" offset="0.140625"/><stop stop-opacity="1" stop-color="rgb(0%, 83.677673%, 96.315002%)" offset="0.148438"/><stop stop-opacity="1" stop-color="rgb(0%, 83.346558%, 96.115112%)" offset="0.15625"/><stop stop-opacity="1" stop-color="rgb(0%, 83.015442%, 95.916748%)" offset="0.164062"/><stop stop-opacity="1" stop-color="rgb(0%, 82.684326%, 95.716858%)" offset="0.171875"/><stop stop-opacity="1" stop-color="rgb(0%, 82.354736%, 95.518494%)" offset="0.179688"/><stop stop-opacity="1" stop-color="rgb(0%, 82.023621%, 95.318604%)" offset="0.1875"/><stop stop-opacity="1" stop-color="rgb(0%, 81.692505%, 95.120239%)" offset="0.195312"/><stop stop-opacity="1" stop-color="rgb(0%, 81.361389%, 94.920349%)" offset="0.203125"/><stop stop-opacity="1" stop-color="rgb(0%, 81.030273%, 94.721985%)" offset="0.210938"/><stop stop-opacity="1" stop-color="rgb(0%, 80.699158%, 94.522095%)" offset="0.21875"/><stop stop-opacity="1" stop-color="rgb(0%, 80.369568%, 94.32373%)" offset="0.226562"/><stop stop-opacity="1" stop-color="rgb(0%, 80.038452%, 94.12384%)" offset="0.234375"/><stop stop-opacity="1" stop-color="rgb(0%, 79.707336%, 93.925476%)" offset="0.242188"/><stop stop-opacity="1" stop-color="rgb(0%, 79.376221%, 93.725586%)" offset="0.25"/><stop stop-opacity="1" stop-color="rgb(0%, 79.045105%, 93.527222%)" offset="0.257812"/><stop stop-opacity="1" stop-color="rgb(0%, 78.713989%, 93.327332%)" offset="0.265625"/><stop stop-opacity="1" stop-color="rgb(0%, 78.384399%, 93.128967%)" offset="0.273438"/><stop stop-opacity="1" stop-color="rgb(0%, 78.053284%, 92.929077%)" offset="0.28125"/><stop stop-opacity="1" stop-color="rgb(0%, 77.722168%, 92.730713%)" offset="0.289062"/><stop stop-opacity="1" stop-color="rgb(0%, 77.391052%, 92.530823%)" offset="0.296875"/><stop stop-opacity="1" stop-color="rgb(0%, 77.059937%, 92.332458%)" offset="0.304688"/><stop stop-opacity="1" stop-color="rgb(0%, 76.728821%, 92.132568%)" offset="0.3125"/><stop stop-opacity="1" stop-color="rgb(0%, 76.399231%, 91.934204%)" offset="0.320312"/><stop stop-opacity="1" stop-color="rgb(0%, 76.068115%, 91.734314%)" offset="0.328125"/><stop stop-opacity="1" stop-color="rgb(0%, 75.737%, 91.53595%)" offset="0.335938"/><stop stop-opacity="1" stop-color="rgb(0%, 75.405884%, 91.33606%)" offset="0.34375"/><stop stop-opacity="1" stop-color="rgb(0%, 75.074768%, 91.136169%)" offset="0.351562"/><stop stop-opacity="1" stop-color="rgb(0%, 74.743652%, 90.937805%)" offset="0.359375"/><stop stop-opacity="1" stop-color="rgb(0%, 74.414062%, 90.737915%)" offset="0.367188"/><stop stop-opacity="1" stop-color="rgb(0%, 74.082947%, 90.539551%)" offset="0.375"/><stop stop-opacity="1" stop-color="rgb(0%, 73.751831%, 90.339661%)" offset="0.382812"/><stop stop-opacity="1" stop-color="rgb(0%, 73.420715%, 90.141296%)" offset="0.390625"/><stop stop-opacity="1" stop-color="rgb(0%, 73.0896%, 89.941406%)" offset="0.398438"/><stop stop-opacity="1" stop-color="rgb(0%, 72.758484%, 89.743042%)" offset="0.40625"/><stop stop-opacity="1" stop-color="rgb(0%, 72.428894%, 89.543152%)" offset="0.414062"/><stop stop-opacity="1" stop-color="rgb(0%, 72.097778%, 89.344788%)" offset="0.421875"/><stop stop-opacity="1" stop-color="rgb(0%, 71.766663%, 89.144897%)" offset="0.429688"/><stop stop-opacity="1" stop-color="rgb(0%, 71.435547%, 88.946533%)" offset="0.4375"/><stop stop-opacity="1" stop-color="rgb(0%, 71.104431%, 88.746643%)" offset="0.445312"/><stop stop-opacity="1" stop-color="rgb(0%, 70.773315%, 88.548279%)" offset="0.453125"/><stop stop-opacity="1" stop-color="rgb(0%, 70.443726%, 88.348389%)" offset="0.460938"/><stop stop-opacity="1" stop-color="rgb(0%, 70.11261%, 88.150024%)" offset="0.46875"/><stop stop-opacity="1" stop-color="rgb(0%, 69.781494%, 87.950134%)" offset="0.476562"/><stop stop-opacity="1" stop-color="rgb(0%, 69.450378%, 87.75177%)" offset="0.484375"/><stop stop-opacity="1" stop-color="rgb(0%, 69.119263%, 87.55188%)" offset="0.492188"/><stop stop-opacity="1" stop-color="rgb(0%, 68.788147%, 87.353516%)" offset="0.5"/><stop stop-opacity="1" stop-color="rgb(0%, 68.458557%, 87.153625%)" offset="0.507812"/><stop stop-opacity="1" stop-color="rgb(0%, 68.127441%, 86.955261%)" offset="0.515625"/><stop stop-opacity="1" stop-color="rgb(0%, 67.796326%, 86.755371%)" offset="0.523438"/><stop stop-opacity="1" stop-color="rgb(0%, 67.46521%, 86.557007%)" offset="0.53125"/><stop stop-opacity="1" stop-color="rgb(0%, 67.134094%, 86.357117%)" offset="0.539062"/><stop stop-opacity="1" stop-color="rgb(0%, 66.802979%, 86.158752%)" offset="0.546875"/><stop stop-opacity="1" stop-color="rgb(0%, 66.473389%, 85.958862%)" offset="0.554688"/><stop stop-opacity="1" stop-color="rgb(0%, 66.142273%, 85.760498%)" offset="0.5625"/><stop stop-opacity="1" stop-color="rgb(0%, 65.811157%, 85.560608%)" offset="0.570312"/><stop stop-opacity="1" stop-color="rgb(0%, 65.480042%, 85.362244%)" offset="0.578125"/><stop stop-opacity="1" stop-color="rgb(0%, 65.148926%, 85.162354%)" offset="0.585938"/><stop stop-opacity="1" stop-color="rgb(0%, 64.81781%, 84.963989%)" offset="0.59375"/><stop stop-opacity="1" stop-color="rgb(0%, 64.48822%, 84.764099%)" offset="0.601562"/><stop stop-opacity="1" stop-color="rgb(0%, 64.157104%, 84.565735%)" offset="0.609375"/><stop stop-opacity="1" stop-color="rgb(0%, 63.825989%, 84.365845%)" offset="0.617188"/><stop stop-opacity="1" stop-color="rgb(0%, 63.494873%, 84.16748%)" offset="0.625"/><stop stop-opacity="1" stop-color="rgb(0%, 63.163757%, 83.96759%)" offset="0.632812"/><stop stop-opacity="1" stop-color="rgb(0%, 62.832642%, 83.769226%)" offset="0.640625"/><stop stop-opacity="1" stop-color="rgb(0%, 62.503052%, 83.569336%)" offset="0.648438"/><stop stop-opacity="1" stop-color="rgb(0%, 62.171936%, 83.370972%)" offset="0.65625"/><stop stop-opacity="1" stop-color="rgb(0%, 61.84082%, 83.171082%)" offset="0.664062"/><stop stop-opacity="1" stop-color="rgb(0%, 61.509705%, 82.972717%)" offset="0.671875"/><stop stop-opacity="1" stop-color="rgb(0%, 61.178589%, 82.772827%)" offset="0.679688"/><stop stop-opacity="1" stop-color="rgb(0%, 60.847473%, 82.574463%)" offset="0.6875"/><stop stop-opacity="1" stop-color="rgb(0%, 60.517883%, 82.374573%)" offset="0.695312"/><stop stop-opacity="1" stop-color="rgb(0%, 60.186768%, 82.176208%)" offset="0.703125"/><stop stop-opacity="1" stop-color="rgb(0%, 59.855652%, 81.976318%)" offset="0.710938"/><stop stop-opacity="1" stop-color="rgb(0%, 59.524536%, 81.777954%)" offset="0.71875"/><stop stop-opacity="1" stop-color="rgb(0%, 59.19342%, 81.578064%)" offset="0.726562"/><stop stop-opacity="1" stop-color="rgb(0%, 58.862305%, 81.3797%)" offset="0.734375"/><stop stop-opacity="1" stop-color="rgb(0%, 58.532715%, 81.17981%)" offset="0.742188"/><stop stop-opacity="1" stop-color="rgb(0%, 58.201599%, 80.981445%)" offset="0.75"/><stop stop-opacity="1" stop-color="rgb(0%, 57.870483%, 80.781555%)" offset="0.757812"/><stop stop-opacity="1" stop-color="rgb(0%, 57.539368%, 80.583191%)" offset="0.765625"/><stop stop-opacity="1" stop-color="rgb(0%, 57.208252%, 80.383301%)" offset="0.773438"/><stop stop-opacity="1" stop-color="rgb(0%, 56.877136%, 80.184937%)" offset="0.78125"/><stop stop-opacity="1" stop-color="rgb(0%, 56.547546%, 79.985046%)" offset="0.789062"/><stop stop-opacity="1" stop-color="rgb(0%, 56.216431%, 79.785156%)" offset="0.796875"/><stop stop-opacity="1" stop-color="rgb(0%, 55.885315%, 79.586792%)" offset="0.804688"/><stop stop-opacity="1" stop-color="rgb(0%, 55.554199%, 79.386902%)" offset="0.8125"/><stop stop-opacity="1" stop-color="rgb(0%, 55.223083%, 79.188538%)" offset="0.820312"/><stop stop-opacity="1" stop-color="rgb(0%, 54.891968%, 78.988647%)" offset="0.828125"/><stop stop-opacity="1" stop-color="rgb(0%, 54.562378%, 78.790283%)" offset="0.835938"/><stop stop-opacity="1" stop-color="rgb(0%, 54.231262%, 78.590393%)" offset="0.84375"/><stop stop-opacity="1" stop-color="rgb(0%, 53.900146%, 78.392029%)" offset="0.851562"/><stop stop-opacity="1" stop-color="rgb(0%, 53.569031%, 78.192139%)" offset="0.859375"/><stop stop-opacity="1" stop-color="rgb(0%, 53.237915%, 77.993774%)" offset="0.867188"/><stop stop-opacity="1" stop-color="rgb(0%, 52.906799%, 77.793884%)" offset="0.875"/><stop stop-opacity="1" stop-color="rgb(0%, 52.577209%, 77.59552%)" offset="0.882812"/><stop stop-opacity="1" stop-color="rgb(0%, 52.246094%, 77.39563%)" offset="0.890625"/><stop stop-opacity="1" stop-color="rgb(0%, 51.914978%, 77.197266%)" offset="0.898438"/><stop stop-opacity="1" stop-color="rgb(0%, 51.583862%, 76.997375%)" offset="0.90625"/><stop stop-opacity="1" stop-color="rgb(0%, 51.252747%, 76.799011%)" offset="0.914062"/><stop stop-opacity="1" stop-color="rgb(0%, 50.921631%, 76.599121%)" offset="0.921875"/><stop stop-opacity="1" stop-color="rgb(0%, 50.592041%, 76.400757%)" offset="0.929688"/><stop stop-opacity="1" stop-color="rgb(0%, 50.260925%, 76.200867%)" offset="0.9375"/><stop stop-opacity="1" stop-color="rgb(0%, 49.92981%, 76.002502%)" offset="0.945312"/><stop stop-opacity="1" stop-color="rgb(0%, 49.598694%, 75.802612%)" offset="0.953125"/><stop stop-opacity="1" stop-color="rgb(0%, 49.267578%, 75.604248%)" offset="0.960938"/><stop stop-opacity="1" stop-color="rgb(0%, 48.936462%, 75.404358%)" offset="0.96875"/><stop stop-opacity="1" stop-color="rgb(0%, 48.606873%, 75.205994%)" offset="0.976562"/><stop stop-opacity="1" stop-color="rgb(0%, 48.275757%, 75.006104%)" offset="0.984375"/><stop stop-opacity="1" stop-color="rgb(0%, 47.944641%, 74.807739%)" offset="0.992188"/><stop stop-opacity="1" stop-color="rgb(0%, 47.613525%, 74.607849%)" offset="1"/></linearGradient></defs><path fill="#7b2fff" d="M 75.910156 29.003906 C 73.878906 21.953125 67.621094 17.621094 60.484375 17.054688 L 42.726562 16.902344 C 41.882812 16.898438 41.320312 18.507812 41.320312 19.324219 L 41.300781 78.59375 L 32.152344 72.882812 L 32 21.683594 C 31.992188 18.453125 29.804688 16.210938 26.914062 16.269531 C 26.320312 16.277344 25.972656 15.511719 26.347656 15.027344 L 61.476562 15.082031 C 75.371094 15.101562 86.515625 20.691406 86.652344 35.21875 C 86.71875 42.339844 83.703125 48.515625 77.839844 52.546875 C 73.394531 55.226562 68.25 57.203125 62.601562 56.175781 C 68.984375 54.535156 73.933594 50.660156 75.824219 44.320312 C 77.273438 39.460938 77.402344 34.210938 75.910156 29.015625 Z M 75.910156 29.003906 " fill-opacity="1" fill-rule="nonzero"/><path fill="#00e5ff" d="M 62.566406 106.523438 C 68.8125 116.34375 65.09375 128.011719 55.738281 134.972656 C 57.304688 131.882812 59.105469 129.488281 59.964844 126.265625 C 61.328125 121.160156 60.441406 116.101562 57.234375 111.875 C 54.929688 108.835938 52.1875 106.242188 48.871094 104.285156 L 32.335938 94.515625 C 28.457031 92.226562 24.910156 89.894531 21.648438 86.863281 C 15.78125 81.402344 13.476562 73.574219 16.035156 65.855469 C 17.699219 60.835938 20.84375 56.441406 25.320312 53.394531 C 22.988281 57.292969 21.078125 60.914062 20.609375 65.324219 C 19.964844 71.183594 22.449219 76.445312 26.84375 80.269531 C 29.921875 83.148438 33.496094 85.164062 37.167969 87.308594 L 50.519531 95.117188 C 55.386719 97.960938 59.535156 101.757812 62.566406 106.523438 Z M 62.566406 106.523438 " fill-opacity="1" fill-rule="nonzero"/><g clip-path="url(#35dc98217e)"><path fill="#bf13ff" d="M 70.769531 93.519531 C 70.484375 93.203125 70.449219 92.550781 70.628906 92.117188 L 82.390625 91.851562 C 94.628906 90.078125 99.070312 78.410156 96.300781 66.777344 C 94.835938 60.632812 90.214844 55.972656 84.136719 54.445312 C 83.511719 52.078125 90.597656 53.386719 94.558594 54.777344 C 101.9375 57.363281 106.242188 63.710938 106.605469 71.417969 C 106.976562 79.371094 103.402344 86.515625 96.230469 90.21875 C 91.507812 92.660156 86.207031 93.546875 80.796875 93.539062 L 70.773438 93.519531 Z M 70.769531 93.519531 " fill-opacity="1" fill-rule="nonzero"/></g><path fill="#bf13ff" d="M 59.605469 92.195312 C 57.007812 90.039062 54.902344 87.519531 51.992188 85.597656 L 51.972656 58.390625 C 51.972656 56.113281 51.097656 54.546875 49.089844 53.128906 L 59.683594 52.996094 L 59.609375 92.199219 Z M 59.605469 92.195312 " fill-opacity="1" fill-rule="nonzero"/><g transform="matrix(1, 0, 0, 1, 0, -0.000000000000007527)"><g clip-path="url(#fa19290b5e)"><g transform="matrix(1, 0, 0, 1, 0, -0.000000000000007527)"><g clip-path="url(#c993b061fb)"><g mask="url(#42785532c6)"><g transform="matrix(1, 0, 0, 1, 0, -0.000000000000007527)"><g clip-path="url(#53d4c645ec)"><g clip-path="url(#965b4d91d7)"><rect x="-241.56" fill="url(#6fd0671d83)" width="933.12" height="311.039995" y="-80.519999"/></g></g></g></g></g></g></g></g><g clip-path="url(#21fe94e3ed)"><g transform="matrix(1, 0, 0, 1, 89, 30)"><g clip-path="url(#4860b0a3fe)"><g clip-path="url(#49d6bbf58e)"><g mask="url(#d96a17fb3c)"><g transform="matrix(1, 0, 0, 1, 0, -0.000000000000007105)"><g clip-path="url(#5198257c1f)"><g clip-path="url(#064b9b3c28)"><path fill="url(#fb956df62f)" d="M 0.214844 2.535156 L 0.214844 120 L 361 120 L 361 2.535156 Z M 0.214844 2.535156 " fill-rule="nonzero"/></g></g></g></g></g></g></g></g><path stroke-linecap="butt" transform="matrix(0, 0.75, -0.75, 0, 128.279279, 15.000001)" fill="none" stroke-linejoin="miter" d="M -0.0000015 0.50258 L 160.000008 0.50258 " stroke="url(#4baf2bdac9)" stroke-width="1" stroke-miterlimit="4"/></svg>